<?xml version="1.0" encoding="utf-8"?>
<!-- Generator: Adobe Illustrator 16.0.0, SVG Export Plug-In . SVG Version: 6.00 Build 0)  -->
<!DOCTYPE svg PUBLIC "-//W3C//DTD SVG 1.1//EN" "http://www.w3.org/Graphics/SVG/1.1/DTD/svg11.dtd">
<svg version="1.1" id="Layer_1" xmlns="http://www.w3.org/2000/svg" xmlns:xlink="http://www.w3.org/1999/xlink" x="0px" y="0px"
	 width="350px" height="80px" viewBox="0 0 350 80" enable-background="new 0 0 350 80" xml:space="preserve">
<g>
	<path fill="#EF4242" d="M299.343,77.319L191.305,53.815l47.786-71.936l77.846,17.594L299.343,77.319z"/>
	<circle fill="#56BA5B" cx="159.591" cy="-56.984" r="57.5"/>
	<path fill="#5078BC" d="M146.334,79.067L61.153,89.423l45.429-86.4L146.334,79.067z"/>
	<path fill="#FECF0A" d="M60.154,4.229L23.849,43.524l-52.184-11.793l-15.878-51.09l36.306-39.295L44.275-46.86L60.154,4.229z"/>
	<circle fill="#645CA8" cx="59.476" cy="106.076" r="38.5"/>
	<path fill="#46C5DE" d="M239.111,44.052L239.111,44.052c-0.62,2.747-3.35,4.47-6.096,3.85l-77.729-17.566
		c-2.746-0.622-4.469-3.352-3.848-6.098l0,0c0.621-2.746,3.35-4.469,6.096-3.848l77.728,17.566
		C238.009,38.576,239.732,41.306,239.111,44.052z"/>
	<path fill="#645CA8" d="M350.507-52.184l-83.442,17.444c-5.406,1.131-10.706-2.336-11.835-7.742
		c-0.033-0.155-0.063-0.314-0.087-0.472l-13.624-85.479c-0.868-5.456,2.851-10.582,8.307-11.45c0.102-0.016,0.203-0.03,0.305-0.043
		l86.979-11.089c5.48-0.699,10.486,3.177,11.186,8.654l10.086,79.123C359.04-58.064,355.612-53.25,350.507-52.184z"/>
	<circle fill="#40C4DC" cx="55.515" cy="5.73" r="20.5"/>
</g>
<g>
	<defs>
		<polyline id="SVGID_1_" points="215.25,0 215.25,80 0,80 0,-38.5 215.25,-38.5 215.25,0 		"/>
	</defs>
	<clipPath id="SVGID_2_">
		<use xlink:href="#SVGID_1_"  overflow="visible"/>
	</clipPath>
</g>
<g>
	<g>
		<path fill-rule="evenodd" clip-rule="evenodd" fill="#FFFFFF" d="M150.082,0.125c-0.033-0.145,0.021-0.2,0.164-0.167
			c0.121,0.171,0.295,0.078,0.44,0.079c13.728,0.005,27.455,0.005,41.184,0.005c51.313,0,102.625,0,153.937-0.005
			c0.145,0,0.319,0.092,0.44-0.079c0.142-0.033,0.196,0.022,0.163,0.167c-0.157,0.095-0.077,0.25-0.077,0.373
			c-0.004,25.723-0.004,51.447,0,77.169c0,0.124-0.08,0.279,0.077,0.374c0.033,0.145-0.021,0.199-0.163,0.166
			c-0.121-0.17-0.296-0.078-0.44-0.078c-26.569-0.005-53.139-0.005-79.708-0.005c-38.471,0-76.941,0-115.412,0.005
			c-0.145,0-0.319-0.092-0.44,0.078c-0.142,0.033-0.196-0.021-0.164-0.166c0.158-0.095,0.078-0.25,0.078-0.374
			c0.004-25.723,0.004-51.446,0-77.169C150.16,0.375,150.24,0.22,150.082,0.125z M241.412,27.78
			c-0.021-0.023-0.043-0.046-0.063-0.069c0.06-0.076,0.116-0.153,0.179-0.226c2.018-2.358,2.594-5.083,1.88-8.084
			c-0.524-2.202-1.771-3.879-3.792-4.895c-0.543-0.273-0.718-0.129-0.679,0.488c0.07,1.11,0.107,2.223,0.226,3.327
			c0.077,0.723-0.02,1.306-0.693,1.682c-0.116,0.065-0.221,0.168-0.307,0.273c-0.66,0.81-1.518,1.093-2.522,1.021
			c-0.166-0.012-0.319-0.016-0.463-0.116c-0.562-0.392-1.13-0.776-1.69-1.168c-0.077-0.054-0.16-0.077-0.158-0.24
			c0.016-1.751,0.008-3.502,0.004-5.253c-0.002-0.884-0.009-0.899-0.863-0.671c-1.71,0.456-2.793,1.655-3.555,3.202
			c-0.659,1.336-0.906,2.783-1.028,4.257c-0.013,0.153,0.043,0.323-0.226,0.346c-0.518,0.044-0.598,0.271-0.276,0.693
			c0.264,0.347,0.53,0.692,0.751,1.135c-0.334,0-0.616-0.005-0.898,0.001c-0.256,0.006-1.008,0.599-1.053,0.822
			c-0.144,0.715,0.014,1.055,0.634,1.407c0.151,0.085,0.302,0.11,0.468,0.107c0.518-0.007,1.037,0.013,1.555-0.014
			c0.294-0.016,0.424,0.083,0.514,0.372c0.863,2.798,0.715,5.554-0.286,8.285c-0.085,0.233-0.153,0.245-0.324,0.086
			c-0.625-0.58-1.259-1.149-1.817-1.799c-0.146-0.169-0.136-0.294-0.041-0.474c0.307-0.578,0.289-1.193,0.211-1.825
			c-0.098-0.793-0.589-1.389-0.924-2.064c-2.002-4.035-3.996-8.074-5.996-12.109c-0.052-0.104-0.059-0.257-0.206-0.291
			c-0.329-0.075-0.778,0.303-0.771,0.65c0.077,4.309,0.155,8.618,0.229,12.927c0.004,0.246,0.049,0.493-0.059,0.739
			c-0.361,0.827-0.271,1.57,0.438,2.175c0.113,0.097,0.132,0.166,0.053,0.307c-0.26,0.461-0.252,0.466,0.236,0.711
			c0.086,0.043,0.173,0.082,0.256,0.13c0.679,0.393,0.892,0.954,0.664,1.718c-0.174,0.584-0.332,1.172-0.509,1.754
			c-0.042,0.135-0.015,0.365-0.173,0.378c-0.159,0.014-0.191-0.203-0.245-0.342c-0.253-0.647-0.58-1.252-0.958-1.833
			c-1.322-2.029-3.188-3.188-5.55-3.363c-1.001-0.074-1.763-0.502-2.415-1.134c-4.703-4.559-9.377-9.148-14.062-13.728
			c-0.128-0.125-0.253-0.25-0.323-0.423c-0.393-0.974-0.974-1.818-1.668-2.596c-0.396-0.445-0.338-0.947,0.102-1.355
			c0.182-0.168,0.379-0.318,0.554-0.493c2.194-2.186,4.388-4.371,6.573-6.565c0.514-0.515,1.055-1.019,1.324-1.728
			c0.242-0.637-0.154-1.126-0.813-1.019c-0.437,0.071-0.831,0.261-1.216,0.471c-0.994,0.545-1.979,1.109-2.98,1.643
			c-1.004,0.537-2.049,0.962-3.186,1.115c-0.869,0.116-1.72,0.334-2.498,0.738c-4.088,2.119-7.359,5.061-9.1,9.516
			c-0.316,0.809-0.762,1.506-1.517,1.951c-0.325,0.191-0.651,0.46-1.054,0.362c-0.615-0.151-1.092,0.042-1.506,0.49
			c-0.478,0.516-0.963,1.024-1.438,1.542c-0.641,0.7-0.638,1.464,0.027,2.131c0.953,0.955,1.915,1.9,2.883,2.84
			c0.658,0.639,1.418,0.639,2.066-0.004c0.519-0.513,1.029-1.036,1.516-1.58c0.383-0.427,0.611-0.928,0.404-1.526
			c-0.07-0.198,0.034-0.32,0.136-0.446c0.512-0.635,1.075-1.219,1.694-1.744c0.447-0.378,0.956-0.635,1.512-0.799
			c0.666-0.197,1.242-0.149,1.8,0.388c1.068,1.028,2.181,2.015,3.515,2.693c0.666,0.338,1.21,0.837,1.742,1.361
			c2.402,2.366,4.817,4.719,7.229,7.077c1.041,1.019,2.084,2.038,3.141,3.069c-0.791,0.567-1.557,1.114-2.271,1.733
			c-0.216,0.187-0.276,0.365-0.229,0.645c0.221,1.355,0.429,2.713,0.625,4.072c0.035,0.242,0.125,0.405,0.319,0.542
			c0.465,0.328,0.919,0.672,1.398,1.025c-0.165,0.099-0.302,0.059-0.431,0.059c-1.677,0.006-3.354,0.009-5.03,0.005
			c-0.244-0.001-0.372,0.001-0.265,0.328c1.213,3.692,2.414,7.39,3.609,11.088c0.072,0.223,0.178,0.299,0.407,0.294
			c0.749-0.015,1.501,0.018,2.249-0.015c0.385-0.017,0.465,0.113,0.464,0.485c-0.011,6.66-0.005,13.319-0.017,19.979
			c0,0.386,0.101,0.478,0.471,0.478c30.459-0.009,60.916-0.009,91.375,0c0.356,0,0.449-0.084,0.448-0.454
			c-0.013-4.061-0.007-8.12-0.007-12.18c0.492-0.046,0.996-0.002,1.471-0.188c0.272,0.152,0.391-0.06,0.524-0.232
			c1.605-2.083,2.962-4.312,3.816-6.83c0.085-0.249,0.183-0.327,0.434-0.22c0.3,0.129,0.618,0.211,0.921,0.334
			c0.184,0.075,0.262,0.064,0.285-0.162c0.045-0.427,0.084-0.859,0.189-1.273c0.17-0.666,0.06-1.231-0.305-1.824
			c-1.024-1.667-2.274-2.844-4.391-2.431c-0.016-0.018-0.033-0.035-0.051-0.052c0.062-0.107,0.118-0.218,0.186-0.322
			c1.396-2.171,2.793-4.341,4.189-6.512c0.072-0.112,0.179-0.208,0.193-0.407c-2.251,0-4.492,0-6.797,0
			c0.099-0.074,0.129-0.104,0.164-0.123c4.457-2.343,8.813-4.881,13.322-7.123c1.674-0.833,3.293-1.781,4.944-2.663
			c0.254-0.135,0.196-0.262,0.097-0.454c-1.77-3.393-3.538-6.786-5.295-10.184c-0.138-0.265-0.24-0.278-0.484-0.137
			c-1.831,1.054-3.684,2.069-5.533,3.084c-8.777,4.822-17.6,9.562-26.404,14.331c-1.334,0.722-2.668,1.443-4,2.166
			c-0.175,0.096-0.377,0.214-0.498-0.014c-0.109-0.204,0.053-0.357,0.23-0.463c0.105-0.064,0.205-0.138,0.311-0.201
			c0.464-0.278,0.973-0.461,1.507-0.692c-0.263-0.183-0.563-0.192-0.795-0.426c0.735-0.264,1.427-0.512,2.118-0.759
			c1.137-0.406,1.408-0.985,1.01-2.139c-0.477-1.386-0.938-2.778-1.432-4.158c-0.111-0.31-0.057-0.419,0.234-0.546
			c1.586-0.69,3.23-1.225,4.797-1.97c0.938-0.446,1.893-0.852,2.748-1.453c0.656-0.461,1.288-0.973,1.523-1.787
			c0.094-0.321,0.248-0.44,0.521-0.539c2.525-0.908,5.048-1.826,7.57-2.744c0.139-0.051,0.297-0.092,0.402-0.188
			c1.195-1.086,2.387-2.176,3.568-3.277c0.26-0.243,0.477-0.534,0.713-0.803c0.885-1.004,0.807-0.614,0.372-1.894
			c-0.013-0.04-0.015-0.084-0.034-0.12c-0.123-0.225-0.068-0.338,0.182-0.418c0.492-0.158,0.967-0.373,1.461-0.526
			c0.373-0.115,0.42-0.319,0.295-0.657c-0.242-0.662-0.462-1.333-0.696-1.998c-0.155-0.44-0.251-0.481-0.705-0.32
			c-0.424,0.15-0.86,0.275-1.265,0.466c-0.363,0.171-0.49,0.049-0.582-0.3c-0.096-0.36-0.25-0.703-0.367-1.058
			c-0.071-0.212-0.207-0.332-0.422-0.319c-0.682,0.043-1.342-0.025-2.025-0.129c-1.437-0.218-2.904-0.22-4.359-0.316
			c-0.225-0.015-0.431,0.028-0.639,0.104c-2.496,0.909-4.994,1.812-7.488,2.73c-0.315,0.117-0.568,0.175-0.834-0.108
			c-0.111-0.12-0.311-0.164-0.479-0.219c-0.87-0.286-1.749-0.179-2.629-0.046c-1.322,0.199-2.564,0.736-3.89,0.925
			c-0.388,0.056-0.775,0.126-1.151,0.263c-5.328,1.934-10.658,3.858-15.984,5.795c-0.322,0.117-0.424,0.104-0.393-0.288
			c0.107-1.288,0.195-2.577,0.264-3.867c0.092-1.735,0.213-3.459,0.778-5.122c0.146-0.428,0.317-0.866,0.31-1.33
			c-0.026-1.584-0.074-3.168-0.104-4.752c-0.006-0.31-0.132-0.458-0.436-0.475c-0.57-0.033-1.143-0.07-1.712-0.121
			c-0.308-0.027-0.438,0.099-0.485,0.409c-0.176,1.138-0.333,2.28-0.57,3.405c-0.223,1.053-0.178,2.082-0.018,3.133
			c0.105,0.696,0.244,1.396,0.195,2.111c-0.173,2.522-0.343,5.045-0.504,7.569c-0.017,0.259-0.142,0.348-0.357,0.425
			c-1.221,0.432-2.436,0.878-3.653,1.317c-0.096,0.034-0.188,0.125-0.327,0.028c1.06-2.031,2.119-4.064,3.205-6.146
			c-0.135,0.01-0.203,0.006-0.268,0.021c-2.088,0.493-4.176,0.99-6.266,1.479c-0.148,0.035-0.262,0.096-0.307,0.236
			c-0.098,0.307-0.309,0.382-0.598,0.365c-0.231-0.014-0.464,0.016-0.695,0.009c-0.225-0.007-0.385,0.075-0.515,0.268
			c-1.733,2.576-3.552,5.093-5.216,7.717C242.023,27.469,241.807,27.723,241.412,27.78z"/>
		<path fill-rule="evenodd" clip-rule="evenodd" fill="#918F90" d="M346.246-0.042c-0.121,0.17-0.296,0.079-0.44,0.079
			c-51.312,0.005-102.624,0.005-153.937,0.005c-13.729,0-27.456,0-41.184-0.005c-0.145,0-0.319,0.092-0.44-0.079
			C215.579-0.042,280.912-0.042,346.246-0.042z"/>
		<path fill-rule="evenodd" clip-rule="evenodd" fill="#918F90" d="M150.246,78.208c0.121-0.17,0.295-0.078,0.44-0.078
			c38.471-0.005,76.941-0.005,115.412-0.005c26.569,0,53.139,0,79.708,0.005c0.145,0,0.319-0.092,0.44,0.078
			C280.912,78.208,215.579,78.208,150.246,78.208z"/>
		<path fill-rule="evenodd" clip-rule="evenodd" fill="#918F90" d="M150.082,0.125c0.158,0.094,0.078,0.25,0.078,0.373
			c0.004,25.723,0.004,51.447,0,77.169c0,0.124,0.081,0.279-0.078,0.374C150.082,52.069,150.082,26.097,150.082,0.125z"/>
		<path fill-rule="evenodd" clip-rule="evenodd" fill="#918F90" d="M346.409,78.042c-0.157-0.095-0.077-0.25-0.077-0.374
			c-0.004-25.723-0.004-51.446,0-77.169c0-0.124-0.08-0.278,0.077-0.373C346.409,26.097,346.409,52.069,346.409,78.042z"/>
		<path fill-rule="evenodd" clip-rule="evenodd" fill="#646667" d="M302.086,49.442c2.116-0.413,3.366,0.764,4.391,2.431
			c0.364,0.593,0.475,1.158,0.305,1.824c-0.105,0.414-0.145,0.847-0.189,1.273c-0.023,0.227-0.102,0.237-0.285,0.162
			c-0.303-0.123-0.621-0.205-0.921-0.334c-0.251-0.107-0.349-0.029-0.434,0.22c-0.854,2.519-2.211,4.747-3.816,6.83
			c-0.134,0.173-0.252,0.385-0.524,0.232c-0.138-0.376,0.182-0.559,0.348-0.784c1.447-1.962,2.707-4.03,3.516-6.359
			c0.21-0.604-0.109-1.328-0.711-1.558c-0.917-0.349-1.84-0.683-2.761-1.022c-0.128-0.047-0.257-0.098-0.397-0.059
			c-0.094-0.17-0.268-0.168-0.424-0.205c-0.223-0.119-0.454-0.213-0.706-0.246c-0.3-0.185-0.63-0.29-0.968-0.371
			c-0.023-0.015-0.045-0.034-0.069-0.044c-2.087-0.777-4.174-1.555-6.261-2.33c-0.131-0.049-0.273-0.073-0.396-0.003
			c-0.431,0.246-0.871,0.232-1.32,0.079c-0.203-0.103-0.417-0.168-0.643-0.188c-0.313-0.152-0.646-0.232-0.982-0.301
			c-0.951-0.274-1.836-0.733-2.775-1.037c-0.289-0.224-0.725-0.192-0.934-0.557c-0.172-0.296-0.299-0.642-0.714-0.666
			c-3.277-1.061-6.558-2.11-9.83-3.188c-0.875-0.288-1.739-0.534-2.673-0.425c-0.273,0.031-0.418,0.147-0.492,0.405
			c-0.223,0.771-0.445,1.541-0.6,2.33c-0.352,1.804-0.475,3.627-0.478,5.462c-0.001,0.217,0.054,0.467-0.267,0.513
			c-0.281-0.078-0.218-0.317-0.219-0.515c-0.01-2.652,0.248-5.268,1.061-7.803c0.093-0.288,0.025-0.388-0.256-0.377
			c-0.082,0.003-0.164-0.003-0.246-0.003c-16.168,0-32.338,0.001-48.506-0.007c-0.332,0-0.438,0.074-0.436,0.431
			c0.018,2.1,0.01,4.198,0.008,6.298c-0.002,1.034-0.498,1.542-1.5,1.544c-0.995,0.001-1.99,0.001-2.985,0
			c-1.071-0.001-1.552-0.485-1.552-1.568c-0.002-2.085-0.012-4.171,0.01-6.256c0.004-0.384-0.111-0.452-0.457-0.449
			c-2.317,0.016-4.635,0.006-6.953,0.009c-0.603,0.001-0.529-0.068-0.529,0.524c-0.001,10.079,0,20.159,0,30.238
			c0,0.638,0,0.638,0.631,0.638c29.897,0,59.795,0,89.692,0c0.109,0,0.22-0.011,0.327,0.002c0.248,0.027,0.328-0.073,0.328-0.329
			c-0.01-3.852-0.01-7.702-0.014-11.553c0.016-0.017,0.027-0.036,0.035-0.058c0.201-0.004,0.402-0.008,0.604-0.013l0.022-0.013
			c0,4.06-0.006,8.119,0.007,12.18c0.001,0.37-0.092,0.454-0.448,0.454c-30.459-0.009-60.916-0.009-91.375,0
			c-0.37,0-0.471-0.092-0.471-0.478c0.012-6.66,0.006-13.319,0.017-19.979c0.001-0.372-0.079-0.502-0.464-0.485
			c-0.748,0.032-1.5,0-2.249,0.015c-0.229,0.005-0.335-0.071-0.407-0.294c-1.195-3.698-2.396-7.396-3.609-11.088
			c-0.107-0.327,0.021-0.329,0.265-0.328c1.677,0.004,3.354,0.001,5.03-0.005c0.129,0,0.266,0.04,0.431-0.059
			c-0.479-0.354-0.934-0.697-1.398-1.025c-0.194-0.137-0.284-0.3-0.319-0.542c-0.196-1.359-0.404-2.717-0.625-4.072
			c-0.047-0.28,0.014-0.458,0.229-0.645c0.714-0.619,1.479-1.167,2.271-1.733c-1.057-1.031-2.1-2.05-3.141-3.069
			c-2.411-2.357-4.826-4.71-7.229-7.077c-0.532-0.524-1.076-1.023-1.742-1.361c-1.334-0.679-2.446-1.665-3.515-2.693
			c-0.558-0.537-1.134-0.585-1.8-0.388c-0.556,0.164-1.064,0.421-1.512,0.799c-0.619,0.525-1.183,1.109-1.694,1.744
			c-0.102,0.126-0.206,0.248-0.136,0.446c0.207,0.598-0.021,1.099-0.404,1.526c-0.486,0.544-0.997,1.067-1.516,1.58
			c-0.648,0.643-1.408,0.643-2.066,0.004c-0.968-0.939-1.93-1.885-2.883-2.84c-0.665-0.667-0.668-1.431-0.027-2.131
			c0.475-0.518,0.96-1.026,1.438-1.542c0.414-0.449,0.891-0.642,1.506-0.49c0.402,0.099,0.729-0.17,1.054-0.362
			c0.755-0.445,1.2-1.142,1.517-1.951c1.74-4.455,5.012-7.397,9.1-9.516c0.778-0.403,1.629-0.622,2.498-0.738
			c1.137-0.152,2.182-0.578,3.186-1.115c1.001-0.534,1.986-1.098,2.98-1.643c0.385-0.21,0.779-0.4,1.216-0.471
			c0.659-0.107,1.056,0.382,0.813,1.019c-0.27,0.708-0.811,1.212-1.324,1.728c-2.186,2.194-4.379,4.379-6.573,6.565
			c-0.175,0.174-0.372,0.325-0.554,0.493c-0.439,0.408-0.498,0.91-0.102,1.355c0.694,0.777,1.275,1.622,1.668,2.596
			c0.07,0.173,0.195,0.298,0.323,0.423c4.685,4.58,9.358,9.169,14.062,13.728c0.652,0.632,1.414,1.06,2.415,1.134
			c2.362,0.174,4.228,1.333,5.55,3.363c0.378,0.581,0.705,1.186,0.958,1.833c0.054,0.139,0.086,0.355,0.245,0.342
			c0.158-0.014,0.131-0.243,0.173-0.378c0.177-0.582,0.335-1.17,0.509-1.754c0.228-0.764,0.015-1.325-0.664-1.718
			c-0.083-0.048-0.17-0.087-0.256-0.13c-0.488-0.245-0.496-0.25-0.236-0.711c0.079-0.141,0.061-0.209-0.053-0.307
			c-0.708-0.605-0.799-1.348-0.438-2.175c0.107-0.246,0.063-0.493,0.059-0.739c-0.074-4.309-0.152-8.618-0.229-12.927
			c-0.007-0.348,0.442-0.726,0.771-0.65c0.147,0.034,0.154,0.186,0.206,0.291c2,4.036,3.994,8.075,5.996,12.109
			c0.335,0.676,0.826,1.271,0.924,2.064c0.078,0.632,0.096,1.248-0.211,1.825c-0.095,0.18-0.105,0.305,0.041,0.474
			c0.559,0.65,1.192,1.219,1.817,1.799c0.171,0.159,0.239,0.147,0.324-0.086c1.001-2.73,1.149-5.487,0.286-8.285
			c-0.09-0.289-0.22-0.388-0.514-0.372c-0.518,0.027-1.037,0.007-1.555,0.014c-0.166,0.002-0.316-0.022-0.468-0.107
			c-0.62-0.352-0.777-0.692-0.634-1.407c0.045-0.223,0.797-0.816,1.053-0.822c0.282-0.006,0.564-0.001,0.898-0.001
			c-0.221-0.443-0.487-0.789-0.751-1.135c-0.321-0.423-0.241-0.649,0.276-0.693c0.269-0.023,0.213-0.193,0.226-0.346
			c0.122-1.474,0.369-2.921,1.028-4.257c0.762-1.547,1.845-2.746,3.555-3.202c0.854-0.228,0.861-0.213,0.863,0.671
			c0.004,1.751,0.012,3.502-0.004,5.253c-0.002,0.163,0.081,0.186,0.158,0.24c0.561,0.393,1.129,0.776,1.69,1.168
			c0.144,0.101,0.297,0.104,0.463,0.116c1.005,0.072,1.862-0.211,2.522-1.021c0.086-0.105,0.19-0.208,0.307-0.273
			c0.674-0.376,0.771-0.959,0.693-1.682c-0.118-1.104-0.155-2.217-0.226-3.327c-0.039-0.618,0.136-0.761,0.679-0.488
			c2.021,1.016,3.268,2.693,3.792,4.895c0.714,3.001,0.138,5.726-1.88,8.084c-0.063,0.073-0.119,0.15-0.179,0.226
			c-0.021,0.025-0.063,0.067-0.059,0.072c0.038,0.049,0.081,0.026,0.122-0.003c0.395-0.058,0.611-0.311,0.824-0.646
			c1.664-2.624,3.482-5.141,5.216-7.717c0.13-0.193,0.29-0.275,0.515-0.268c0.231,0.007,0.464-0.023,0.695-0.009
			c0.289,0.018,0.5-0.058,0.598-0.365c0.045-0.14,0.158-0.201,0.307-0.236c2.09-0.489,4.178-0.985,6.266-1.479
			c0.064-0.015,0.133-0.011,0.268-0.021c-1.086,2.082-2.146,4.114-3.205,6.146c0.139,0.098,0.231,0.006,0.327-0.028
			c1.218-0.439,2.433-0.885,3.653-1.317c0.216-0.077,0.341-0.166,0.357-0.425c0.161-2.523,0.331-5.046,0.504-7.569
			c0.049-0.715-0.09-1.415-0.195-2.111c-0.16-1.051-0.205-2.081,0.018-3.133c0.237-1.125,0.395-2.268,0.57-3.405
			c0.048-0.31,0.178-0.436,0.485-0.409c0.569,0.051,1.142,0.087,1.712,0.121c0.304,0.017,0.43,0.166,0.436,0.475
			c0.029,1.584,0.077,3.168,0.104,4.752c0.008,0.464-0.164,0.902-0.31,1.33c-0.565,1.662-0.687,3.387-0.778,5.122
			c-0.068,1.29-0.156,2.58-0.264,3.867c-0.031,0.392,0.07,0.404,0.393,0.288c5.326-1.937,10.656-3.861,15.984-5.795
			c0.376-0.137,0.764-0.208,1.151-0.263c1.325-0.189,2.567-0.727,3.89-0.925c0.88-0.132,1.759-0.24,2.629,0.046
			c0.168,0.055,0.367,0.1,0.479,0.219c0.266,0.283,0.519,0.225,0.834,0.108c2.494-0.918,4.992-1.821,7.488-2.73
			c0.208-0.076,0.414-0.119,0.639-0.104c1.455,0.096,2.923,0.098,4.359,0.316c0.684,0.104,1.344,0.172,2.025,0.129
			c0.215-0.013,0.351,0.107,0.422,0.319c0.117,0.354,0.271,0.698,0.367,1.058c0.092,0.349,0.219,0.471,0.582,0.3
			c0.404-0.191,0.841-0.315,1.265-0.466c0.454-0.161,0.55-0.12,0.705,0.32c0.234,0.665,0.454,1.335,0.696,1.998
			c0.125,0.338,0.078,0.542-0.295,0.657c-0.494,0.153-0.969,0.368-1.461,0.526c-0.25,0.081-0.305,0.194-0.182,0.418
			c0.02,0.035,0.021,0.08,0.034,0.12c0.435,1.28,0.513,0.89-0.372,1.894c-0.236,0.269-0.453,0.56-0.713,0.803
			c-1.182,1.101-2.373,2.191-3.568,3.277c-0.105,0.096-0.264,0.137-0.402,0.188c-2.522,0.917-5.045,1.835-7.57,2.744
			c-0.273,0.099-0.428,0.218-0.521,0.539c-0.235,0.814-0.867,1.326-1.523,1.787c-0.855,0.601-1.811,1.007-2.748,1.453
			c-1.566,0.745-3.211,1.28-4.797,1.97c-0.291,0.126-0.346,0.236-0.234,0.546c0.494,1.38,0.955,2.772,1.432,4.158
			c0.398,1.153,0.127,1.733-1.01,2.139c-0.691,0.247-1.383,0.495-2.118,0.759c0.232,0.233,0.532,0.243,0.795,0.426
			c-0.534,0.231-1.043,0.414-1.507,0.692c-0.105,0.063-0.205,0.137-0.311,0.201c-0.178,0.105-0.34,0.259-0.23,0.463
			c0.121,0.228,0.323,0.109,0.498,0.014c1.332-0.723,2.666-1.444,4-2.166c8.805-4.77,17.627-9.509,26.404-14.331
			c1.85-1.016,3.702-2.031,5.533-3.084c0.244-0.141,0.347-0.127,0.484,0.137c1.757,3.398,3.525,6.792,5.295,10.184
			c0.1,0.192,0.157,0.319-0.097,0.454c-1.651,0.882-3.271,1.83-4.944,2.663c-4.51,2.242-8.865,4.78-13.322,7.123
			c-0.035,0.019-0.065,0.049-0.164,0.123c2.305,0,4.546,0,6.797,0c-0.015,0.199-0.121,0.295-0.193,0.407
			c-1.396,2.171-2.793,4.341-4.189,6.512c-0.067,0.104-0.124,0.215-0.186,0.322c-0.027,0.03-0.052,0.063-0.004,0.093
			C302.039,49.488,302.067,49.457,302.086,49.442z M305.664,51.688c0.016,0.016,0.042,0.047,0.045,0.045
			c0.047-0.035,0.014-0.055-0.018-0.073c-0.866-1.662-2.795-2.165-3.708-1.585C303.25,50.542,304.457,51.116,305.664,51.688z
			 M284.62,38.637c-0.101,0.039-0.208,0.067-0.303,0.119c-1.479,0.799-2.956,1.6-4.435,2.4c-0.416,0.226-0.83,0.453-1.281,0.699
			c0.865,0.395,1.641,0.444,2.451-0.046c0.936-0.565,1.913-1.06,2.883-1.563c0.312-0.162,0.543-0.31,0.504-0.736
			c-0.027-0.281,0.087-0.57,0.223-0.83c0.016-0.019,0.048-0.048,0.045-0.053C284.674,38.578,284.646,38.608,284.62,38.637z
			 M240.526,28.459c-1.279,0.803-2.339,1.845-3.241,3.066c-1.707,2.312-2.716,4.938-3.387,7.721
			c-0.043,0.172,0.021,0.26,0.113,0.363c0.648,0.732,1.238,1.512,1.801,2.314c0.062,0.088,0.113,0.231,0.225,0.22
			c0.16-0.018,0.119-0.201,0.146-0.308c0.889-3.553,2.115-6.982,3.654-10.294c0.187-0.4,0.422-0.773,0.206-1.245
			c-0.046-0.1-0.005-0.244,0.003-0.367c0.031-0.53,0.357-0.947,0.525-1.424c0.039-0.017,0.064-0.042,0.035-0.083
			C240.604,28.417,240.555,28.446,240.526,28.459z M276.953,39.637c-0.043-0.057-0.07-0.104-0.107-0.141
			c-1.158-1.084-1.742-2.494-2.172-3.989c-0.275-0.96,0.053-1.717,0.785-2.319c0.499-0.411,1.051-0.742,1.62-1.043
			c1.831-0.967,3.772-1.661,5.692-2.404c0.286-0.11,0.338-0.217,0.235-0.504c-0.578-1.616-1.141-3.238-1.704-4.86
			c-1.047-3.007-2.092-6.015-3.131-9.024c-0.079-0.229-0.174-0.359-0.436-0.296c-0.568,0.137-1.154,0.185-1.709,0.385
			c-3.449,1.246-6.899,2.492-10.349,3.739c-1.975,0.714-3.948,1.43-5.923,2.146c-0.146,0.054-0.301,0.079-0.314,0.313
			c-0.066,1.093-0.158,2.185-0.23,3.277c-0.094,1.383-0.173,2.768-0.267,4.152c-0.128,1.895-0.263,3.79-0.397,5.685
			c-0.07,0.968-0.139,1.936-0.223,2.902c-0.039,0.442-0.006,0.479,0.429,0.345c0.703-0.219,1.329-0.633,2.051-0.813
			c1.652-0.413,2.893,0.33,3.313,2.01c0.211,0.842,0.254,1.699,0.225,2.561c-0.012,0.339,0.102,0.418,0.416,0.415
			c1.514-0.016,3.027-0.016,4.54,0.001c0.277,0.003,0.42-0.104,0.54-0.333c0.264-0.502,0.543-0.995,0.814-1.493
			c0.066-0.122,0.121-0.251,0.268-0.295c0.666-0.197,1.28-0.549,1.967-0.68c1.102-0.21,2.185-0.324,2.974,0.749
			c0.085,0.116,0.155,0.077,0.239,0.028C276.381,39.982,276.66,39.814,276.953,39.637z M203.115,3.52
			c-0.432,0.065-0.752,0.212-1.061,0.38c-1.082,0.587-2.15,1.2-3.239,1.772c-1.032,0.542-2.106,0.975-3.274,1.114
			c-0.859,0.103-1.67,0.386-2.455,0.742c-1.613,0.73-3.025,1.771-4.295,3.002c-1.822,1.768-3.561,3.6-4.348,6.145
			c-0.357,1.152-1.129,1.987-2.226,2.47c-0.368,0.162-0.743,0.326-1.177,0.179c-0.283-0.095-0.532,0.06-0.73,0.27
			c-0.493,0.52-0.986,1.04-1.468,1.57c-0.407,0.449-0.396,0.831,0.044,1.271c0.611,0.614,1.236,1.216,1.854,1.823
			c0.333,0.328,0.655,0.67,1.003,0.981c0.422,0.376,0.756,0.361,1.148-0.035c0.495-0.498,0.984-1.002,1.463-1.517
			c0.23-0.247,0.445-0.55,0.269-0.895c-0.173-0.336-0.075-0.583,0.113-0.835c0.716-0.955,1.514-1.826,2.521-2.47
			c0.38-0.244,0.789-0.435,1.229-0.551c0.87-0.229,1.652-0.162,2.329,0.551c0.462,0.487,1.007,0.893,1.51,1.341
			c0.118,0.105,0.203,0.153,0.335,0.012c1.148-1.227,2.301-2.449,3.455-3.67c0.104-0.109,0.104-0.203,0.036-0.333
			c-0.313-0.597-0.547-1.238-1.026-1.739c-0.273-0.286-0.548-0.581-0.736-0.943c-0.322-0.617-0.283-1.17,0.172-1.694
			c0.23-0.265,0.513-0.481,0.766-0.726c2.398-2.312,4.709-4.713,7.052-7.082C202.678,4.348,202.932,4.008,203.115,3.52z
			 M239.621,42.165c0.871,0,1.744-0.016,2.615,0.008c0.341,0.009,0.439-0.102,0.445-0.443c0.021-1.235,0.016-2.475,0.173-3.7
			c0.255-1.989,1.102-3.663,2.638-4.96c1.463-1.238,3.186-1.825,5.02-2.139c0.227-0.039,0.32-0.126,0.393-0.332
			c0.582-1.643,1.17-3.285,1.77-4.921c0.094-0.252,0.061-0.435-0.084-0.652c-1.082-1.633-2.164-3.268-3.22-4.919
			c-0.238-0.373-0.497-0.546-0.929-0.466c-0.252,0.046-0.52-0.061-0.719,0.247c-1.835,2.834-3.928,5.488-5.586,8.449
			c-0.933,1.665-1.866,3.32-2.612,5.082c-1.134,2.679-2.057,5.432-2.798,8.249c-0.131,0.499-0.127,0.5,0.4,0.5
			C237.958,42.165,238.789,42.165,239.621,42.165z M233.301,38.802c0.105-0.113,0.117-0.237,0.146-0.354
			c0.466-1.804,1.063-3.553,1.973-5.184c1.057-1.891,2.295-3.619,4.066-4.882c2.787-1.988,3.907-4.7,3.438-8.116
			c-0.281-2.042-1.296-3.62-2.936-4.798c-0.092-0.066-0.19-0.212-0.315-0.125c-0.091,0.063-0.034,0.208-0.028,0.316
			c0.063,1.207,0.123,2.414,0.195,3.621c0.018,0.274-0.058,0.474-0.269,0.653c-0.67,0.569-1.331,1.149-1.987,1.735
			c-0.175,0.156-0.359,0.219-0.59,0.229c-2.764,0.113-5.527,0.233-8.291,0.354c-0.157,0.007-0.322-0.009-0.482,0.101
			c0.076,0.122,0.146,0.239,0.219,0.354c1.438,2.294,2.188,4.794,2.128,7.526c-0.034,1.583-0.373,3.109-0.95,4.577
			c-0.121,0.309-0.076,0.494,0.173,0.708c0.31,0.268,0.657,0.477,0.96,0.758C231.626,37.088,232.477,37.927,233.301,38.802z
			 M285.541,38.097c0.004,0.023,0.009,0.046,0.014,0.069c1.131,0,2.262,0,3.392,0c1.03,0.001,1.511,0.483,1.513,1.518
			c0.001,0.681,0.017,1.362-0.008,2.043c-0.011,0.334,0.067,0.452,0.422,0.448c1.854-0.02,3.707-0.014,5.562-0.007
			c0.282,0.001,0.532-0.065,0.779-0.2c1.513-0.826,3.026-1.647,4.542-2.468c3.211-1.738,6.421-3.477,9.637-5.207
			c0.254-0.137,0.287-0.26,0.154-0.514c-1.248-2.374-2.492-4.75-3.719-7.135c-0.191-0.372-0.342-0.444-0.729-0.234
			c-5.885,3.203-11.78,6.388-17.673,9.577C288.131,36.689,286.836,37.394,285.541,38.097z M255.574,38.521
			c0.258,0.063,0.494-0.04,0.52-0.516c0.066-1.231,0.164-2.46,0.244-3.691c0.092-1.411,0.168-2.822,0.268-4.232
			c0.175-2.501,0.361-5.001,0.545-7.501c0.018-0.23-0.042-0.301-0.276-0.214c-1.395,0.511-2.792,1.015-4.19,1.513
			c-0.166,0.06-0.186,0.119-0.088,0.261c0.202,0.296,0.385,0.605,0.591,0.899c0.114,0.164,0.131,0.307,0.06,0.5
			c-0.662,1.819-1.314,3.643-1.968,5.465c-0.042,0.117-0.062,0.284-0.181,0.312c-0.426,0.098-0.401,0.465-0.477,0.772
			c-0.094,0.39-0.191,0.779-0.266,1.174c-0.074,0.387-0.216,0.711-0.59,0.887c-0.18,0.085-0.227,0.209-0.107,0.396
			c0.17,0.268,0.309,0.556,0.485,0.818C251.421,37.258,253.14,38.385,255.574,38.521z M282.293,14.295
			c-1.195,0.031-2.336,0.351-3.477,0.679c-0.191,0.055-0.227,0.134-0.154,0.326c0.208,0.558,0.395,1.123,0.59,1.685
			c1.375,3.948,2.752,7.896,4.116,11.847c0.103,0.298,0.217,0.362,0.491,0.224c0.647-0.325,1.313-0.612,1.953-0.95
			c0.605-0.32,1.177-0.706,1.618-1.251c0.306-0.378,0.493-0.787,0.313-1.302c-1.207-3.45-2.408-6.901-3.607-10.354
			c-0.145-0.416-0.432-0.662-0.832-0.788C282.975,14.309,282.636,14.292,282.293,14.295z M271.601,40.574
			c-0.241,0.039-0.476-0.094-0.618,0.184c-0.201,0.394-0.424,0.776-0.641,1.162c-0.072,0.129-0.087,0.205,0.092,0.271
			c0.466,0.17,0.914,0.311,1.422,0.122c0.356-0.133,0.713-0.248,1.138-0.109c3.897,1.276,7.804,2.527,11.71,3.775
			c0.291,0.092,0.521,0.207,0.645,0.506c0.134,0.324,0.391,0.487,0.711,0.626c1.557,0.675,3.166,1.178,4.791,1.641
			c0.196,0.056,0.361,0.031,0.549-0.04c0.27-0.103,0.52-0.245,0.854-0.12c3.805,1.425,7.615,2.838,11.431,4.234
			c0.446,0.164,0.801,0.386,1.034,0.805c0.256,0.46,0.652,0.696,1.148,0.831c0.256,0.069,0.316-0.009,0.345-0.223
			c0.048-0.356,0.062-0.723,0.15-1.069c0.079-0.304-0.024-0.458-0.257-0.614c-0.399-0.27-0.815-0.505-1.246-0.713
			c-3.504-1.692-7.195-2.863-10.872-4.074c-1.708-0.563-3.46-0.998-5.14-1.634c-4.451-1.686-8.895-3.387-13.462-4.729
			C274.13,41.037,272.865,40.71,271.601,40.574z M212.836,32.571c-1.215-0.037-2.369,0.258-3.495,0.693
			c-1.72,0.664-3.255,1.653-4.727,2.766c-0.362,0.275-0.427,0.569-0.364,0.961c0.157,0.981,0.318,1.962,0.471,2.945
			c0.064,0.421,0.092,0.444,0.412,0.177c0.791-0.66,1.626-1.256,2.507-1.782c2.327-1.389,4.762-2.388,7.542-1.998
			c1.141,0.16,2.201,0.558,3.033,1.393c0.361,0.362,0.724,0.479,1.195,0.445c0.24-0.018,0.309-0.063,0.227-0.321
			C218.688,34.874,216.22,32.511,212.836,32.571z M219.916,18.092c0,0.774-0.011,1.494,0.001,2.213
			c0.054,3.208,0.112,6.416,0.173,9.624c0.004,0.227-0.033,0.434-0.121,0.645c-0.303,0.725-0.108,1.281,0.604,1.601
			c0.304,0.137,0.338,0.257,0.133,0.491c-0.168,0.192-0.159,0.303,0.088,0.454c0.855,0.523,1.176,1.442,0.895,2.319
			c-0.278,0.869-0.51,1.753-0.781,2.625c-0.098,0.315,0.014,0.344,0.261,0.262c0.633-0.211,1.261-0.442,1.899-0.629
			c0.298-0.087,0.359-0.226,0.284-0.509c-0.042-0.156-0.04-0.333-0.021-0.494c0.182-1.416,0.939-2.552,1.738-3.666
			c0.059-0.083,0.172-0.134,0.27-0.177c0.765-0.339,1.19-0.91,1.154-1.779c-0.04-0.962-0.286-1.821-1.256-2.239
			c-0.66-0.285-1.352-0.319-2.041-0.146c-0.292,0.074-0.398,0.02-0.479-0.279c-0.702-2.634-1.419-5.265-2.134-7.896
			C220.367,19.716,220.146,18.925,219.916,18.092z M317.52,31.713c-0.025-0.057-0.059-0.133-0.097-0.206
			c-0.216-0.417-0.437-0.833-0.651-1.25c-1.33-2.565-2.66-5.13-3.98-7.7c-0.124-0.24-0.213-0.325-0.484-0.176
			c-1.222,0.672-2.454,1.324-3.689,1.972c-0.227,0.118-0.248,0.225-0.129,0.448c0.785,1.476,1.561,2.957,2.333,4.44
			c0.798,1.532,1.594,3.066,2.379,4.605c0.114,0.224,0.22,0.216,0.409,0.114c1.239-0.668,2.484-1.328,3.726-1.993
			C317.427,31.919,317.549,31.886,317.52,31.713z M206.861,48.177c0-1.626-0.006-3.253,0.006-4.879
			c0.002-0.284-0.066-0.381-0.36-0.378c-1.744,0.015-3.489,0.015-5.233,0.003c-0.282-0.002-0.313,0.071-0.23,0.327
			c1.068,3.262,2.131,6.525,3.186,9.792c0.074,0.232,0.193,0.291,0.414,0.286c0.613-0.013,1.229-0.021,1.84,0.003
			c0.313,0.013,0.389-0.093,0.385-0.4C206.854,51.346,206.861,49.762,206.861,48.177z M277.049,41.387
			c0.547,0.118,0.932,0.441,1.444,0.161c3.71-2.024,7.429-4.034,11.145-6.047c2.526-1.368,5.053-2.733,7.579-4.1
			c3.381-1.829,6.762-3.657,10.139-5.491c0.256-0.14,0.394-0.12,0.541,0.166c1.307,2.532,2.629,5.055,3.943,7.582
			c0.313,0.599,0.307,0.599-0.289,0.92c-4.26,2.302-8.519,4.604-12.777,6.908c-0.377,0.203-0.749,0.416-1.156,0.642
			c0.688,0.126,1.242-0.049,1.807-0.356c4.357-2.38,8.725-4.742,13.096-7.095c0.298-0.16,0.223-0.291,0.109-0.506
			c-1.55-2.966-3.094-5.935-4.642-8.902c-0.261-0.499-0.269-0.499-0.764-0.23c-3.681,1.994-7.358,3.99-11.039,5.983
			c-5.558,3.008-11.115,6.014-16.673,9.022C278.722,40.471,277.934,40.903,277.049,41.387z M260.222,7.981c-0.011,0-0.021,0-0.032,0
			c-0.021-0.472-0.049-0.944-0.064-1.416c-0.036-1.079-0.034-1.073-1.086-1.092c-0.217-0.004-0.307,0.051-0.342,0.286
			c-0.145,0.959-0.329,1.913-0.469,2.874c-0.085,0.584-0.262,1.151-0.199,1.766c0.127,1.268,0.439,2.52,0.344,3.809
			c-0.08,1.094-0.155,2.188-0.23,3.283c-0.117,1.705-0.23,3.409-0.348,5.114c-0.183,2.646-0.367,5.292-0.551,7.939
			c-0.127,1.801-0.256,3.602-0.383,5.403c-0.059,0.832-0.115,1.663-0.173,2.494c-0.045,0.655-0.044,0.646,0.603,0.665
			c0.205,0.006,0.299-0.04,0.307-0.263c0.014-0.389,0.05-0.776,0.076-1.164c0.184-2.632,0.369-5.265,0.551-7.897
			c0.119-1.746,0.23-3.493,0.351-5.239c0.183-2.66,0.373-5.32,0.55-7.981c0.117-1.745,0.193-3.491,0.78-5.166
			c0.153-0.437,0.315-0.889,0.316-1.37C260.223,9.343,260.222,8.662,260.222,7.981z M298.486,48.756c0-1.933-0.001-3.82,0.002-5.708
			c0-0.277-0.193-0.215-0.344-0.215c-2.451-0.003-4.902,0.003-7.354-0.008c-0.279-0.001-0.339,0.098-0.335,0.358
			c0.014,0.861,0.02,1.723-0.002,2.584c-0.008,0.291,0.086,0.403,0.354,0.486c1.548,0.479,3.09,0.974,4.631,1.475
			C296.443,48.056,297.443,48.403,298.486,48.756z M254.125,38.87c-2.279-0.621-3.871-2.087-4.955-4.202
			c-0.107,0.113-0.185,0.189-0.254,0.272c-0.098,0.116-0.197,0.231-0.283,0.355c-1.378,1.992-1.932,4.215-1.795,6.636
			c0.013,0.222,0.113,0.236,0.282,0.236c2.233-0.003,4.466-0.005,6.698,0.002c0.217,0.001,0.344-0.045,0.315-0.294
			c-0.022-0.204,0.133-0.465-0.261-0.516c-0.57-0.074-0.776-0.376-0.749-0.974c0.009-0.18,0.021-0.36,0.029-0.541
			C253.187,39.159,253.433,38.914,254.125,38.87z M244.685,42.165c0.341,0,0.683-0.027,1.021,0.007
			c0.385,0.038,0.527-0.07,0.494-0.491c-0.076-0.987,0.001-1.966,0.24-2.931c0.514-2.073,1.306-3.972,3.1-5.257
			c0.091-0.064,0.115-0.154,0.137-0.245c0.119-0.484,0.228-0.97,0.347-1.454c0.056-0.224-0.03-0.279-0.229-0.224
			c-0.419,0.116-0.848,0.207-1.256,0.353c-2.58,0.92-4.423,2.575-5.063,5.388c-0.347,1.528-0.223,3.094-0.32,4.642
			c-0.014,0.208,0.117,0.214,0.264,0.213C243.84,42.163,244.262,42.164,244.685,42.165z M217.955,38.166
			c-0.436-0.456-0.9-0.711-1.395-0.915c-1.97-0.813-3.924-0.562-5.852,0.133c-2.023,0.729-3.79,1.926-5.47,3.267
			c-0.151,0.121-0.216,0.188-0.021,0.326c0.491,0.35,0.975,0.709,1.455,1.074c0.131,0.101,0.268,0.117,0.42,0.116
			c0.939-0.002,1.879-0.012,2.818,0.005c0.28,0.005,0.375-0.073,0.379-0.367c0.008-0.74,0.348-1.334,0.893-1.795
			c1.17-0.991,2.494-1.15,3.91-0.686c0.246,0.08,0.341,0.061,0.417-0.211c0.167-0.598,0.632-0.934,1.24-0.946
			C217.13,38.16,217.508,38.166,217.955,38.166z M216.098,44.626c0,1.654-0.002,3.309,0,4.963c0.001,0.611,0.219,0.838,0.803,0.839
			c1.037,0.003,2.072,0.003,3.108,0.001c0.576-0.002,0.821-0.242,0.821-0.834c0.004-3.321,0.004-6.644,0-9.966
			c0-0.542-0.25-0.792-0.773-0.794c-1.05-0.004-2.1-0.003-3.148-0.001c-0.593,0.001-0.811,0.224-0.811,0.831
			C216.096,41.317,216.098,42.972,216.098,44.626z M305.463,42.838c-2.078,0-4.066,0.003-6.055-0.004
			c-0.221-0.001-0.275,0.081-0.274,0.292c0.007,1.862,0.007,3.724-0.001,5.586c-0.001,0.219,0.074,0.32,0.273,0.387
			c0.439,0.146,0.877,0.303,1.303,0.484c0.244,0.104,0.371,0.071,0.522-0.167c1.021-1.608,2.058-3.206,3.091-4.807
			C304.687,44.044,305.051,43.479,305.463,42.838z M232.702,17.031c-0.005,0-0.009,0-0.013,0c0-0.722-0.021-1.445,0.008-2.165
			c0.017-0.397-0.128-0.384-0.412-0.276c-0.855,0.323-1.545,0.875-2.096,1.6c-1.134,1.499-1.482,3.269-1.652,5.097
			c-0.023,0.242,0.059,0.317,0.293,0.298c0.325-0.027,0.654-0.039,0.979-0.026c0.349,0.014,0.625-0.1,0.886-0.336
			c0.58-0.525,1.174-1.034,1.771-1.537c0.174-0.146,0.246-0.299,0.24-0.531C232.693,18.447,232.702,17.739,232.702,17.031z
			 M227.025,37.242c1.894,1.471,3.593,3.006,5.082,4.774c0.072,0.086,0.148,0.152,0.273,0.151c0.906-0.003,1.813-0.002,2.771-0.002
			c-0.061-0.11-0.086-0.172-0.123-0.225c-1.395-1.954-3.054-3.657-4.814-5.263c-0.101-0.092-0.204-0.129-0.334-0.099
			C228.955,36.794,228.031,37.008,227.025,37.242z M225.971,36.788c-0.412-0.542-0.815-1.065-1.209-1.595
			c-0.145-0.194-0.218-0.135-0.304,0.047c-0.208,0.439-0.39,0.886-0.474,1.368c-0.103,0.594-0.006,0.714,0.534,0.658
			c0.037,0.151-0.065,0.259-0.12,0.376c-0.345,0.739-0.633,1.502-0.928,2.262c-0.09,0.23-0.051,0.369,0.127,0.531
			c0.445,0.409,0.898,0.816,1.293,1.273c0.32,0.369,0.672,0.494,1.141,0.47c0.27-0.015,0.371-0.112,0.453-0.352
			c0.313-0.93,0.621-1.863,0.984-2.774c0.16-0.403,0.074-0.613-0.26-0.839c-0.583-0.394-1.139-0.83-1.73-1.267
			C225.66,36.888,225.8,36.843,225.971,36.788z M261.742,42.166c0.613,0,1.228-0.005,1.841,0.003
			c0.181,0.002,0.271-0.039,0.272-0.251c0.008-0.821-0.002-1.643-0.169-2.447c-0.321-1.541-1.343-2.157-2.846-1.767
			c-0.847,0.22-1.571,0.766-2.438,0.925c-0.205,0.037-0.154,0.231-0.168,0.376c-0.018,0.203,0.137,0.17,0.25,0.18
			c0.366,0.029,0.733,0.051,1.1,0.079c1.283,0.101,1.469,0.33,1.326,1.64c-0.003,0.027-0.004,0.057-0.008,0.084
			c-0.088,0.564-0.338,0.797-0.898,0.825c-0.129,0.007-0.288-0.056-0.297,0.169c-0.012,0.274,0.194,0.178,0.318,0.18
			C260.598,42.171,261.17,42.166,261.742,42.166z M289.809,42.587c0-0.96,0-1.919,0-2.878c-0.002-0.676-0.192-0.875-0.844-0.875
			c-1.008-0.001-2.018-0.001-3.025,0c-0.637,0.001-0.861,0.226-0.863,0.875c-0.002,1.278,0.027,2.559-0.014,3.836
			c-0.017,0.505,0.137,0.747,0.604,0.882c0.306,0.088,0.396,0.076,0.391-0.279c-0.019-1.278,0-2.558-0.012-3.837
			c-0.004-0.349,0.094-0.506,0.465-0.491c0.612,0.026,1.228,0.027,1.84,0c0.375-0.017,0.497,0.105,0.492,0.494
			c-0.019,1.557-0.008,3.113-0.008,4.671c0,0.68,0.006,0.663,0.639,0.868c0.289,0.094,0.344,0.022,0.341-0.262
			C289.801,44.589,289.809,43.588,289.809,42.587z M254.483,39.328c-0.681-0.065-0.946-0.207-0.941,0.862
			c0.001,0.056-0.015,0.11-0.02,0.165c-0.037,0.421,0.093,0.594,0.511,0.625c1.98,0.145,3.961,0.28,5.941,0.422
			c0.342,0.024,0.506-0.147,0.529-0.481c0.009-0.138,0.01-0.277,0.016-0.416c0.033-0.702-0.008-0.761-0.697-0.81
			C258.059,39.568,256.295,39.452,254.483,39.328z M213.088,42.165c0.68,0,1.361-0.011,2.041,0.007
			c0.256,0.006,0.327-0.079,0.318-0.332c-0.017-0.513-0.018-1.027,0.001-1.539c0.009-0.236-0.08-0.354-0.285-0.431
			c-0.94-0.351-1.89-0.425-2.823-0.013c-0.82,0.362-1.457,0.91-1.568,1.903c-0.033,0.3,0.029,0.425,0.357,0.412
			C211.781,42.148,212.435,42.166,213.088,42.165z M225.279,28.069c-1.389-2.806-2.758-5.569-4.164-8.407
			c-0.021,0.129-0.035,0.158-0.029,0.182c0.712,2.646,1.426,5.292,2.139,7.938c0.031,0.12,0.086,0.204,0.225,0.182
			C224.048,27.869,224.638,27.988,225.279,28.069z M229.28,36.039c-0.024-0.077-0.026-0.109-0.042-0.126
			c-0.928-0.935-1.978-1.739-2.83-2.754c-0.072-0.087-0.141-0.088-0.246-0.032c-0.439,0.235-0.813,0.531-1.066,0.981
			c-0.104,0.183-0.118,0.309,0.016,0.479c0.483,0.617,0.959,1.241,1.427,1.87c0.107,0.145,0.208,0.175,0.378,0.133
			C227.691,36.4,228.472,36.226,229.28,36.039z M227.054,42.14c1.438,0,2.83,0,4.302,0c-1.021-1.148-2.057-2.173-3.207-3.123
			C227.781,40.064,227.426,41.079,227.054,42.14z M300.314,18.83c0.26-0.291,0.484-0.547,0.715-0.797
			c0.102-0.109,0.086-0.225,0.044-0.348c-0.587-1.685-1.175-3.368-1.757-5.054c-0.055-0.157-0.135-0.223-0.3-0.205
			c-0.282,0.03-0.567,0.046-0.902,0.072C298.847,14.605,299.57,16.688,300.314,18.83z M223.411,38.266
			c-0.676,0.226-1.265,0.426-1.855,0.619c-0.135,0.044-0.152,0.132-0.135,0.255c0.126,0.898,0.028,1.802,0.061,2.702
			c0.005,0.141-0.053,0.335,0.194,0.32c0.188-0.012,0.399,0.085,0.486-0.228C222.498,40.725,222.9,39.533,223.411,38.266z
			 M302.711,15.216c-0.164-0.468-0.34-0.978-0.524-1.483c-0.048-0.131-0.15-0.074-0.241-0.041c-0.385,0.138-0.77,0.273-1.154,0.409
			c-0.12,0.042-0.244,0.085-0.182,0.257c0.182,0.505,0.367,1.009,0.552,1.514c0.442-0.014,0.819-0.255,1.232-0.372
			c0.079-0.022,0.153-0.058,0.229-0.087C302.693,15.387,302.736,15.341,302.711,15.216z M229.012,25.318
			c-0.113-0.454-0.33-0.822-0.506-1.206c-0.045-0.097-0.125-0.134-0.232-0.132c-0.313,0.005-0.627-0.014-0.938,0.01
			c-0.346,0.026-0.691,0.455-0.671,0.795c0.02,0.334,0.286,0.53,0.733,0.533C227.927,25.32,228.455,25.318,229.012,25.318z
			 M281.547,42.095c0.007,0.023,0.014,0.048,0.021,0.071c0.776,0,1.552,0.004,2.327-0.002c0.461-0.003,0.553-0.101,0.555-0.554
			c0.001-0.264-0.004-0.527,0.001-0.791c0.005-0.204-0.032-0.288-0.252-0.167C283.318,41.141,282.432,41.615,281.547,42.095z
			 M256.907,42.166c0.626,0,1.252-0.01,1.878,0.005c0.264,0.006,0.307-0.134,0.257-0.336c-0.034-0.138-0.183-0.099-0.281-0.106
			c-1.247-0.099-2.493-0.189-3.741-0.285c-0.311-0.023-0.211,0.216-0.229,0.372c-0.02,0.18-0.055,0.362,0.238,0.355
			C255.654,42.155,256.281,42.166,256.907,42.166z M272.123,40.14c1.122,0.181,2.137,0.437,3.147,0.71
			c0.097,0.025,0.217,0.131,0.288-0.006c0.049-0.094,0.012-0.217-0.04-0.32c-0.239-0.475-0.642-0.714-1.144-0.763
			C273.633,39.688,272.914,39.815,272.123,40.14z M281.543,42.831c-0.004,0.021-0.01,0.044-0.014,0.065
			c0.723,0.261,1.449,0.518,2.17,0.784c0.834,0.308,0.825,0.313,0.762-0.594c-0.014-0.202-0.084-0.261-0.271-0.259
			C283.307,42.834,282.426,42.831,281.543,42.831z M223.151,40.904c-0.118,0.365-0.223,0.679-0.321,0.994
			c-0.047,0.15-0.049,0.272,0.167,0.269c0.452-0.006,0.905-0.002,1.455-0.002C223.984,41.712,223.594,41.333,223.151,40.904z
			 M221.046,19.541c-0.009,0.011-0.024,0.021-0.022,0.029c0.004,0.022,0.015,0.043,0.022,0.064c0.009-0.009,0.025-0.019,0.024-0.026
			C221.065,19.585,221.055,19.564,221.046,19.541z"/>
		<path fill-rule="evenodd" clip-rule="evenodd" fill="#E0E1E1" d="M300.605,52.299c0.141-0.039,0.27,0.012,0.397,0.059
			c0.921,0.34,1.844,0.674,2.761,1.022c0.602,0.229,0.921,0.954,0.711,1.558c-0.809,2.329-2.068,4.397-3.516,6.359
			c-0.166,0.226-0.485,0.408-0.348,0.784c-0.475,0.187-0.979,0.143-1.471,0.188l-0.022,0.013c0.003-2.032,0.007-4.064,0.01-6.097
			c0.196-0.167,0.168-0.335,0.001-0.503c0.001-0.469,0.021-0.939-0.005-1.406c-0.021-0.351,0.11-0.585,0.347-0.83
			C299.844,53.059,300.285,52.741,300.605,52.299z"/>
		<path fill-rule="evenodd" clip-rule="evenodd" fill="#F9B71F" d="M298.479,62.353c0.004,3.851,0.004,7.701,0.014,11.553
			c0,0.256-0.08,0.356-0.328,0.329c-0.107-0.013-0.218-0.002-0.327-0.002c-29.897,0-59.795,0-89.692,0c-0.631,0-0.631,0-0.631-0.638
			c0-10.079-0.001-20.159,0-30.238c0-0.593-0.073-0.523,0.529-0.524c2.318-0.003,4.636,0.007,6.953-0.009
			c0.346-0.003,0.461,0.065,0.457,0.449c-0.021,2.085-0.012,4.171-0.01,6.256c0,1.083,0.48,1.567,1.552,1.568
			c0.995,0.001,1.99,0.001,2.985,0c1.002-0.002,1.498-0.51,1.5-1.544c0.002-2.1,0.01-4.198-0.008-6.298
			c-0.003-0.356,0.104-0.431,0.436-0.431c16.168,0.008,32.338,0.007,48.506,0.007c0.082,0,0.164,0.006,0.246,0.003
			c0.281-0.011,0.349,0.089,0.256,0.377c-0.813,2.535-1.07,5.15-1.061,7.803c0.001,0.197-0.063,0.437,0.219,0.515
			c0.572,0.655,1.233,1.211,1.887,1.777c2.002,1.735,4.184,3.185,6.573,4.3c0.878,0.41,1.956,0.247,2.63-0.476
			c0.59-0.634,1.214-1.238,1.855-1.817c0.835-0.754,1.693-1.483,2.732-1.945c0.563-0.251,0.964-0.138,1.307,0.378
			c0.294,0.442,0.468,0.938,0.619,1.443c0.428,1.436,0.641,2.913,0.822,4.397c0.123,1.014,0.807,1.85,1.756,2.07
			c1.736,0.402,3.492,0.682,5.278,0.7C296.516,62.367,297.497,62.354,298.479,62.353z"/>
		<path fill-rule="evenodd" clip-rule="evenodd" fill="#67AAB3" d="M276.953,39.637c-0.293,0.178-0.572,0.346-0.854,0.514
			c-0.084,0.049-0.154,0.088-0.239-0.028c-0.789-1.073-1.872-0.959-2.974-0.749c-0.687,0.131-1.301,0.482-1.967,0.68
			c-0.146,0.044-0.201,0.173-0.268,0.295c-0.271,0.498-0.551,0.991-0.814,1.493c-0.12,0.229-0.263,0.336-0.54,0.333
			c-1.513-0.017-3.026-0.017-4.54-0.001c-0.314,0.003-0.428-0.076-0.416-0.415c0.029-0.861-0.014-1.719-0.225-2.561
			c-0.421-1.681-1.661-2.423-3.313-2.01c-0.722,0.18-1.348,0.594-2.051,0.813c-0.435,0.135-0.468,0.098-0.429-0.345
			c0.084-0.966,0.152-1.934,0.223-2.902c0.135-1.895,0.27-3.79,0.397-5.685c0.094-1.384,0.173-2.769,0.267-4.152
			c0.072-1.093,0.164-2.185,0.23-3.277c0.014-0.234,0.168-0.259,0.314-0.313c1.975-0.717,3.948-1.432,5.923-2.146
			c3.449-1.247,6.899-2.493,10.349-3.739c0.555-0.2,1.141-0.248,1.709-0.385c0.262-0.063,0.356,0.068,0.436,0.296
			c1.039,3.01,2.084,6.017,3.131,9.024c0.563,1.622,1.126,3.244,1.704,4.86c0.103,0.287,0.051,0.394-0.235,0.504
			c-1.92,0.743-3.861,1.437-5.692,2.404c-0.569,0.301-1.121,0.632-1.62,1.043c-0.732,0.603-1.061,1.359-0.785,2.319
			c0.43,1.496,1.014,2.905,2.172,3.989C276.883,39.532,276.91,39.58,276.953,39.637z"/>
		<path fill-rule="evenodd" clip-rule="evenodd" fill="#E8C77C" d="M298.479,62.353c-0.981,0.002-1.963,0.015-2.944,0.004
			c-1.786-0.019-3.542-0.298-5.278-0.7c-0.949-0.221-1.633-1.057-1.756-2.07c-0.182-1.484-0.395-2.962-0.822-4.397
			c-0.151-0.506-0.325-1.001-0.619-1.443c-0.343-0.516-0.744-0.629-1.307-0.378c-1.039,0.462-1.897,1.191-2.732,1.945
			c-0.642,0.579-1.266,1.184-1.855,1.817c-0.674,0.723-1.752,0.886-2.63,0.476c-2.39-1.115-4.571-2.564-6.573-4.3
			c-0.653-0.566-1.314-1.122-1.887-1.777c0.32-0.046,0.266-0.296,0.267-0.513c0.003-1.835,0.126-3.658,0.478-5.462
			c0.154-0.789,0.377-1.56,0.6-2.33c0.074-0.258,0.219-0.374,0.492-0.405c0.934-0.109,1.798,0.137,2.673,0.425
			c3.272,1.077,6.553,2.127,9.83,3.188c-0.001,1.014-0.005,2.027,0.001,3.042c0.006,1.119,0.554,1.685,1.588,1.633
			c0.855-0.043,1.719-0.057,2.573,0.002c1.378,0.094,1.997-0.443,1.886-1.929c0.449,0.153,0.89,0.167,1.32-0.079
			c0.123-0.07,0.266-0.046,0.396,0.003c2.087,0.775,4.174,1.553,6.261,2.33c0.024,0.01,0.046,0.029,0.069,0.044
			c-0.105,0.333,0.117,0.738-0.221,1.018c-0.324,0.27-0.299,0.61-0.07,0.882c0.271,0.323,0.27,0.671,0.264,1.046
			c-0.008,0.443-0.004,0.888-0.006,1.332c-0.693,0.109-1.388,0.218-2.082,0.326c-0.188,0.029-0.422,0.037-0.354,0.322
			c0.062,0.262,0.286,0.195,0.473,0.168c0.655-0.096,1.31-0.193,1.964-0.29c0.002,1.48-0.002,2.961,0.007,4.441
			c0.003,0.524-0.043,1.051,0.032,1.573C298.506,62.316,298.494,62.336,298.479,62.353z M273.682,49.605
			c0.767-0.116,1.533-0.232,2.301-0.348c1.534-0.23,3.068-0.456,4.602-0.692c0.161-0.025,0.406-0.024,0.366-0.288
			c-0.043-0.279-0.257-0.255-0.479-0.217c-0.617,0.105-1.237,0.189-1.856,0.283c-1.655,0.25-3.31,0.5-4.966,0.75
			c-0.169,0.025-0.348,0.062-0.332,0.282C273.332,49.595,273.5,49.622,273.682,49.605z M276.239,50.97
			c0.106-0.017,0.159-0.026,0.214-0.034c1.061-0.156,2.121-0.311,3.182-0.469c0.604-0.09,1.208-0.185,1.813-0.276
			c0.17-0.025,0.35-0.068,0.301-0.295c-0.041-0.194-0.209-0.235-0.389-0.207c-0.068,0.011-0.135,0.025-0.201,0.035
			c-0.846,0.126-1.691,0.251-2.537,0.377c-0.766,0.113-1.531,0.224-2.297,0.342c-0.155,0.024-0.35,0.04-0.34,0.274
			C275.993,50.901,276.113,50.979,276.239,50.97z"/>
		<path fill-rule="evenodd" clip-rule="evenodd" fill="#D6D7D6" d="M203.115,3.52c-0.184,0.488-0.438,0.829-0.737,1.133
			c-2.343,2.369-4.653,4.77-7.052,7.082c-0.253,0.245-0.535,0.461-0.766,0.726c-0.455,0.524-0.494,1.077-0.172,1.694
			c0.188,0.362,0.463,0.657,0.736,0.943c0.479,0.501,0.713,1.143,1.026,1.739c0.067,0.13,0.067,0.224-0.036,0.333
			c-1.154,1.221-2.307,2.443-3.455,3.67c-0.132,0.142-0.217,0.094-0.335-0.012c-0.503-0.448-1.048-0.854-1.51-1.341
			c-0.677-0.712-1.459-0.78-2.329-0.551c-0.439,0.116-0.849,0.307-1.229,0.551c-1.007,0.645-1.805,1.515-2.521,2.47
			c-0.188,0.252-0.286,0.499-0.113,0.835c0.177,0.345-0.038,0.648-0.269,0.895c-0.479,0.514-0.968,1.019-1.463,1.517
			c-0.393,0.396-0.727,0.411-1.148,0.035c-0.348-0.311-0.67-0.653-1.003-0.981c-0.618-0.607-1.243-1.209-1.854-1.823
			c-0.439-0.439-0.451-0.821-0.044-1.271c0.481-0.53,0.975-1.05,1.468-1.57c0.198-0.209,0.447-0.365,0.73-0.27
			c0.434,0.146,0.809-0.017,1.177-0.179c1.097-0.483,1.868-1.318,2.226-2.47c0.787-2.545,2.525-4.377,4.348-6.145
			c1.27-1.232,2.682-2.272,4.295-3.002c0.785-0.356,1.596-0.64,2.455-0.742c1.168-0.139,2.242-0.571,3.274-1.114
			c1.089-0.572,2.157-1.185,3.239-1.772C202.363,3.732,202.684,3.584,203.115,3.52z"/>
		<path fill-rule="evenodd" clip-rule="evenodd" fill="#F68F35" d="M239.621,42.165c-0.832,0-1.663,0-2.494,0
			c-0.527,0-0.531-0.001-0.4-0.5c0.741-2.817,1.664-5.569,2.798-8.249c0.746-1.762,1.68-3.417,2.612-5.082
			c1.658-2.961,3.751-5.615,5.586-8.449c0.199-0.308,0.467-0.201,0.719-0.247c0.432-0.08,0.69,0.094,0.929,0.466
			c1.056,1.652,2.138,3.286,3.22,4.919c0.145,0.217,0.178,0.4,0.084,0.652c-0.6,1.636-1.188,3.278-1.77,4.921
			c-0.072,0.206-0.166,0.293-0.393,0.332c-1.834,0.313-3.557,0.901-5.02,2.139c-1.536,1.298-2.383,2.971-2.638,4.96
			c-0.157,1.226-0.151,2.465-0.173,3.7c-0.006,0.342-0.104,0.452-0.445,0.443C241.365,42.149,240.492,42.165,239.621,42.165z"/>
		<path fill-rule="evenodd" clip-rule="evenodd" fill="#D6D7D6" d="M233.301,38.802c-0.824-0.875-1.675-1.713-2.551-2.526
			c-0.303-0.281-0.65-0.49-0.96-0.758c-0.249-0.215-0.294-0.399-0.173-0.708c0.577-1.468,0.916-2.994,0.95-4.577
			c0.06-2.732-0.689-5.231-2.128-7.526c-0.072-0.115-0.143-0.232-0.219-0.354c0.16-0.11,0.325-0.094,0.482-0.101
			c2.764-0.121,5.527-0.241,8.291-0.354c0.23-0.01,0.415-0.073,0.59-0.229c0.656-0.586,1.317-1.167,1.987-1.735
			c0.211-0.179,0.286-0.379,0.269-0.653c-0.072-1.207-0.133-2.414-0.195-3.621c-0.006-0.107-0.063-0.252,0.028-0.316
			c0.125-0.088,0.224,0.058,0.315,0.125c1.64,1.178,2.654,2.756,2.936,4.798c0.47,3.416-0.65,6.128-3.438,8.116
			c-1.771,1.263-3.01,2.991-4.066,4.882c-0.91,1.631-1.507,3.38-1.973,5.184C233.418,38.565,233.406,38.688,233.301,38.802z
			 M236.594,26.774c-0.014,0-0.027,0-0.041,0c0-0.875-0.008-1.751,0.005-2.626c0.005-0.347-0.104-0.507-0.47-0.503
			c-1.403,0.017-2.807,0.019-4.211,0.015c-0.343-0.001-0.49,0.129-0.487,0.493c0.018,1.737,0.024,3.475,0.022,5.211
			c0,0.397,0.163,0.539,0.543,0.533c1.363-0.018,2.726-0.014,4.088-0.025c0.48-0.003,0.547-0.073,0.549-0.556
			C236.597,28.469,236.594,27.622,236.594,26.774z"/>
		<path fill-rule="evenodd" clip-rule="evenodd" fill="#5A71B5" d="M285.541,38.097c1.295-0.704,2.59-1.408,3.886-2.11
			c5.893-3.189,11.788-6.375,17.673-9.577c0.387-0.21,0.537-0.138,0.729,0.234c1.227,2.386,2.471,4.761,3.719,7.135
			c0.133,0.254,0.1,0.377-0.154,0.514c-3.216,1.729-6.426,3.469-9.637,5.207c-1.516,0.82-3.029,1.642-4.542,2.468
			c-0.247,0.135-0.497,0.201-0.779,0.2c-1.854-0.007-3.708-0.013-5.562,0.007c-0.354,0.004-0.433-0.114-0.422-0.448
			c0.024-0.681,0.009-1.362,0.008-2.043c-0.002-1.035-0.482-1.517-1.513-1.518c-1.13,0-2.261,0-3.392,0
			C285.55,38.143,285.545,38.12,285.541,38.097z M295.519,41.348c0.245,0.023,0.48-0.08,0.712-0.205
			c1.082-0.584,2.166-1.164,3.248-1.75c0.926-0.501,1.857-0.99,2.768-1.518c0.698-0.404,0.911-1.062,0.574-1.729
			c-0.619-1.22-1.252-2.433-1.9-3.637c-0.35-0.651-1.055-0.884-1.68-0.55c-2.072,1.107-4.14,2.227-6.201,3.356
			c-0.669,0.367-0.882,1.002-0.54,1.692c0.625,1.263,1.285,2.508,1.944,3.753C294.662,41.173,295.028,41.366,295.519,41.348z
			 M308.7,31.761c0.006-1.466-1.144-2.654-2.573-2.659c-1.395-0.004-2.577,1.196-2.582,2.62c-0.006,1.474,1.135,2.668,2.559,2.679
			C307.538,34.413,308.694,33.237,308.7,31.761z"/>
		<path fill-rule="evenodd" clip-rule="evenodd" fill="#67AAB3" d="M255.574,38.521c-2.435-0.136-4.153-1.263-5.431-3.157
			c-0.177-0.262-0.315-0.551-0.485-0.818c-0.119-0.187-0.072-0.311,0.107-0.396c0.374-0.176,0.516-0.5,0.59-0.887
			c0.074-0.395,0.172-0.784,0.266-1.174c0.075-0.308,0.051-0.674,0.477-0.772c0.119-0.027,0.139-0.194,0.181-0.312
			c0.653-1.822,1.306-3.646,1.968-5.465c0.071-0.193,0.055-0.336-0.06-0.5c-0.206-0.293-0.389-0.603-0.591-0.899
			c-0.098-0.143-0.078-0.202,0.088-0.261c1.398-0.498,2.796-1.001,4.19-1.513c0.234-0.086,0.294-0.016,0.276,0.214
			c-0.184,2.5-0.37,5-0.545,7.501c-0.1,1.41-0.176,2.821-0.268,4.232c-0.08,1.23-0.178,2.46-0.244,3.691
			C256.068,38.481,255.832,38.584,255.574,38.521z"/>
		<path fill-rule="evenodd" clip-rule="evenodd" fill="#D6D7D6" d="M282.293,14.295c0.343-0.004,0.682,0.013,1.012,0.117
			c0.4,0.126,0.688,0.373,0.832,0.788c1.199,3.452,2.4,6.904,3.607,10.354c0.18,0.515-0.008,0.923-0.313,1.302
			c-0.441,0.545-1.013,0.931-1.618,1.251c-0.641,0.338-1.306,0.625-1.953,0.95c-0.274,0.138-0.389,0.074-0.491-0.224
			c-1.364-3.952-2.741-7.899-4.116-11.847c-0.195-0.562-0.382-1.127-0.59-1.685c-0.072-0.192-0.037-0.271,0.154-0.326
			C279.957,14.646,281.098,14.326,282.293,14.295z"/>
		<path fill-rule="evenodd" clip-rule="evenodd" fill="#89BC4A" d="M271.601,40.574c1.265,0.136,2.529,0.463,3.783,0.831
			c4.567,1.342,9.011,3.043,13.462,4.729c1.68,0.636,3.432,1.071,5.14,1.634c3.677,1.211,7.368,2.382,10.872,4.074
			c0.431,0.208,0.847,0.443,1.246,0.713c0.232,0.156,0.336,0.311,0.257,0.614c-0.089,0.347-0.103,0.713-0.15,1.069
			c-0.028,0.214-0.089,0.292-0.345,0.223c-0.496-0.135-0.893-0.371-1.148-0.831c-0.233-0.419-0.588-0.641-1.034-0.805
			c-3.815-1.396-7.626-2.81-11.431-4.234c-0.334-0.125-0.584,0.018-0.854,0.12c-0.188,0.071-0.353,0.096-0.549,0.04
			c-1.625-0.463-3.234-0.966-4.791-1.641c-0.32-0.139-0.577-0.302-0.711-0.626c-0.123-0.299-0.354-0.414-0.645-0.506
			c-3.906-1.248-7.813-2.499-11.71-3.775c-0.425-0.139-0.781-0.023-1.138,0.109c-0.508,0.188-0.956,0.048-1.422-0.122
			c-0.179-0.065-0.164-0.142-0.092-0.271c0.217-0.386,0.439-0.769,0.641-1.162C271.125,40.48,271.359,40.613,271.601,40.574z"/>
		<path fill-rule="evenodd" clip-rule="evenodd" fill="#89898C" d="M212.836,32.571c3.384-0.06,5.853,2.303,6.801,5.279
			c0.082,0.258,0.014,0.303-0.227,0.321c-0.472,0.035-0.834-0.083-1.195-0.445c-0.832-0.835-1.893-1.233-3.033-1.393
			c-2.78-0.391-5.215,0.609-7.542,1.998c-0.881,0.525-1.716,1.122-2.507,1.782c-0.32,0.268-0.348,0.244-0.412-0.177
			c-0.152-0.982-0.313-1.963-0.471-2.945c-0.063-0.393,0.002-0.687,0.364-0.961c1.472-1.113,3.007-2.102,4.727-2.766
			C210.467,32.83,211.621,32.534,212.836,32.571z"/>
		<path fill-rule="evenodd" clip-rule="evenodd" fill="#D6D7D6" d="M219.916,18.092c0.229,0.833,0.451,1.624,0.667,2.417
			c0.715,2.631,1.432,5.262,2.134,7.896c0.08,0.299,0.187,0.353,0.479,0.279c0.689-0.173,1.381-0.139,2.041,0.146
			c0.97,0.418,1.216,1.277,1.256,2.239c0.036,0.869-0.39,1.44-1.154,1.779c-0.098,0.043-0.211,0.095-0.27,0.177
			c-0.799,1.113-1.557,2.25-1.738,3.666c-0.02,0.162-0.021,0.338,0.021,0.494c0.075,0.284,0.014,0.422-0.284,0.509
			c-0.639,0.187-1.267,0.417-1.899,0.629c-0.247,0.083-0.358,0.054-0.261-0.262c0.271-0.872,0.503-1.756,0.781-2.625
			c0.281-0.876-0.039-1.795-0.895-2.319c-0.247-0.151-0.256-0.262-0.088-0.454c0.205-0.234,0.171-0.354-0.133-0.491
			c-0.712-0.32-0.906-0.876-0.604-1.601c0.088-0.21,0.125-0.417,0.121-0.645c-0.061-3.208-0.119-6.416-0.173-9.624
			C219.905,19.586,219.916,18.866,219.916,18.092z"/>
		<path fill-rule="evenodd" clip-rule="evenodd" fill="#89898C" d="M317.52,31.713c0.029,0.173-0.093,0.206-0.185,0.255
			c-1.241,0.665-2.486,1.324-3.726,1.993c-0.189,0.102-0.295,0.11-0.409-0.114c-0.785-1.54-1.581-3.073-2.379-4.605
			c-0.772-1.483-1.548-2.965-2.333-4.44c-0.119-0.224-0.098-0.33,0.129-0.448c1.235-0.647,2.468-1.3,3.689-1.972
			c0.271-0.149,0.36-0.064,0.484,0.176c1.32,2.57,2.65,5.134,3.98,7.7c0.215,0.417,0.436,0.833,0.651,1.25
			C317.461,31.581,317.494,31.657,317.52,31.713z"/>
		<path fill-rule="evenodd" clip-rule="evenodd" fill="#F9B71F" d="M206.861,48.177c0,1.585-0.008,3.169,0.006,4.754
			c0.004,0.308-0.071,0.413-0.385,0.4c-0.611-0.024-1.227-0.016-1.84-0.003c-0.221,0.005-0.34-0.054-0.414-0.286
			c-1.055-3.267-2.117-6.53-3.186-9.792c-0.083-0.256-0.052-0.329,0.23-0.327c1.744,0.012,3.489,0.012,5.233-0.003
			c0.294-0.003,0.362,0.094,0.36,0.378C206.855,44.924,206.861,46.551,206.861,48.177z"/>
		<path fill-rule="evenodd" clip-rule="evenodd" fill="#5A71B5" d="M277.049,41.387c0.885-0.483,1.673-0.916,2.463-1.344
			c5.558-3.008,11.115-6.014,16.673-9.022c3.681-1.993,7.358-3.99,11.039-5.983c0.495-0.268,0.503-0.268,0.764,0.23
			c1.548,2.967,3.092,5.936,4.642,8.902c0.113,0.216,0.188,0.347-0.109,0.506c-4.371,2.353-8.738,4.715-13.096,7.095
			c-0.564,0.308-1.119,0.482-1.807,0.356c0.407-0.226,0.779-0.438,1.156-0.642c4.259-2.304,8.518-4.606,12.777-6.908
			c0.596-0.322,0.602-0.321,0.289-0.92c-1.314-2.527-2.637-5.05-3.943-7.582c-0.147-0.285-0.285-0.305-0.541-0.166
			c-3.377,1.834-6.758,3.662-10.139,5.491c-2.526,1.367-5.053,2.732-7.579,4.1c-3.716,2.013-7.435,4.022-11.145,6.047
			C277.98,41.828,277.596,41.505,277.049,41.387z"/>
		<path fill-rule="evenodd" clip-rule="evenodd" fill="#D6D7D6" d="M260.222,7.981c0,0.681,0.001,1.362,0,2.043
			c-0.001,0.481-0.163,0.934-0.316,1.37c-0.587,1.675-0.663,3.421-0.78,5.166c-0.177,2.661-0.367,5.321-0.55,7.981
			c-0.12,1.746-0.231,3.493-0.351,5.239c-0.182,2.633-0.367,5.265-0.551,7.897c-0.026,0.388-0.063,0.775-0.076,1.164
			c-0.008,0.223-0.102,0.269-0.307,0.263c-0.646-0.019-0.647-0.01-0.603-0.665c0.058-0.832,0.114-1.663,0.173-2.494
			c0.127-1.801,0.256-3.602,0.383-5.403c0.184-2.646,0.368-5.292,0.551-7.939c0.117-1.705,0.23-3.409,0.348-5.114
			c0.075-1.095,0.15-2.189,0.23-3.283c0.096-1.289-0.217-2.541-0.344-3.809c-0.063-0.614,0.114-1.181,0.199-1.766
			c0.14-0.96,0.324-1.914,0.469-2.874c0.035-0.235,0.125-0.29,0.342-0.286c1.052,0.019,1.05,0.014,1.086,1.092
			c0.016,0.472,0.043,0.944,0.064,1.416C260.201,7.981,260.211,7.981,260.222,7.981z"/>
		<path fill-rule="evenodd" clip-rule="evenodd" fill="#F9B71F" d="M298.486,48.756c-1.043-0.353-2.043-0.7-3.049-1.027
			c-1.541-0.501-3.083-0.995-4.631-1.475c-0.268-0.083-0.361-0.195-0.354-0.486c0.021-0.861,0.016-1.723,0.002-2.584
			c-0.004-0.261,0.056-0.359,0.335-0.358c2.452,0.011,4.903,0.005,7.354,0.008c0.15,0,0.344-0.063,0.344,0.215
			C298.485,44.936,298.486,46.823,298.486,48.756z"/>
		<path fill-rule="evenodd" clip-rule="evenodd" fill="#FBFBFB" d="M254.125,38.87c-0.692,0.044-0.938,0.29-0.972,0.976
			c-0.009,0.181-0.021,0.361-0.029,0.541c-0.027,0.598,0.179,0.899,0.749,0.974c0.394,0.051,0.238,0.312,0.261,0.516
			c0.028,0.249-0.099,0.295-0.315,0.294c-2.232-0.007-4.465-0.005-6.698-0.002c-0.169,0-0.27-0.015-0.282-0.236
			c-0.137-2.421,0.417-4.644,1.795-6.636c0.086-0.124,0.186-0.24,0.283-0.355c0.069-0.083,0.146-0.159,0.254-0.272
			C250.254,36.783,251.846,38.249,254.125,38.87z"/>
		<path fill-rule="evenodd" clip-rule="evenodd" fill="#D6D7D6" d="M244.685,42.164c-0.423,0-0.845-0.001-1.267,0.001
			c-0.146,0.001-0.277-0.005-0.264-0.213c0.098-1.548-0.026-3.114,0.32-4.642c0.64-2.813,2.482-4.467,5.063-5.388
			c0.408-0.146,0.837-0.236,1.256-0.353c0.199-0.055,0.285,0,0.229,0.224c-0.119,0.484-0.228,0.97-0.347,1.454
			c-0.021,0.091-0.046,0.18-0.137,0.245c-1.794,1.285-2.586,3.184-3.1,5.257c-0.239,0.965-0.316,1.944-0.24,2.931
			c0.033,0.421-0.109,0.529-0.494,0.491C245.367,42.138,245.025,42.165,244.685,42.164z"/>
		<path fill-rule="evenodd" clip-rule="evenodd" fill="#FBFBFB" d="M240.572,28.505c-0.168,0.478-0.494,0.895-0.525,1.424
			c-0.008,0.124-0.049,0.267-0.003,0.367c0.216,0.472-0.02,0.844-0.206,1.245c-1.539,3.313-2.766,6.741-3.654,10.294
			c-0.027,0.106,0.014,0.29-0.146,0.308c-0.111,0.012-0.163-0.132-0.225-0.22c-0.563-0.803-1.152-1.582-1.801-2.314
			c-0.092-0.104-0.156-0.191-0.113-0.363c0.671-2.784,1.68-5.41,3.387-7.721c0.902-1.221,1.962-2.263,3.241-3.066
			C240.542,28.475,240.557,28.49,240.572,28.505z"/>
		<path fill-rule="evenodd" clip-rule="evenodd" fill="#67AAB3" d="M217.955,38.166c-0.447,0-0.825-0.006-1.204,0.001
			c-0.608,0.012-1.073,0.348-1.24,0.946c-0.076,0.272-0.171,0.292-0.417,0.211c-1.416-0.465-2.74-0.306-3.91,0.686
			c-0.545,0.461-0.885,1.055-0.893,1.795c-0.004,0.294-0.099,0.372-0.379,0.367c-0.939-0.017-1.879-0.007-2.818-0.005
			c-0.152,0.001-0.289-0.016-0.42-0.116c-0.48-0.365-0.964-0.725-1.455-1.074c-0.195-0.139-0.131-0.205,0.021-0.326
			c1.68-1.341,3.446-2.538,5.47-3.267c1.928-0.695,3.882-0.947,5.852-0.133C217.055,37.455,217.52,37.71,217.955,38.166z"/>
		<path fill-rule="evenodd" clip-rule="evenodd" fill="#F5B521" d="M216.098,44.626c0-1.654-0.002-3.309,0-4.962
			c0-0.606,0.218-0.829,0.811-0.831c1.049-0.002,2.099-0.003,3.148,0.001c0.523,0.002,0.773,0.252,0.773,0.794
			c0.004,3.322,0.004,6.645,0,9.966c0,0.592-0.245,0.832-0.821,0.834c-1.036,0.002-2.071,0.002-3.108-0.001
			c-0.584-0.001-0.802-0.228-0.803-0.839C216.096,47.935,216.098,46.28,216.098,44.626z M217.072,44.628
			c0,1.459,0.008,2.918-0.006,4.377c-0.002,0.324,0.099,0.445,0.422,0.437c0.654-0.019,1.309-0.016,1.962-0.001
			c0.296,0.006,0.413-0.099,0.411-0.409c-0.006-2.932-0.006-5.863,0-8.795c0.001-0.304-0.104-0.422-0.406-0.415
			c-0.64,0.015-1.281,0.022-1.92-0.002c-0.356-0.013-0.475,0.105-0.47,0.474C217.083,41.738,217.072,43.184,217.072,44.628z"/>
		<path fill-rule="evenodd" clip-rule="evenodd" fill="#F9B71F" d="M305.463,42.838c-0.412,0.641-0.776,1.206-1.141,1.771
			c-1.033,1.601-2.07,3.198-3.091,4.807c-0.151,0.238-0.278,0.271-0.522,0.167c-0.426-0.182-0.863-0.338-1.303-0.484
			c-0.199-0.066-0.274-0.168-0.273-0.387c0.008-1.862,0.008-3.724,0.001-5.586c-0.001-0.211,0.054-0.293,0.274-0.292
			C301.396,42.841,303.385,42.838,305.463,42.838z"/>
		<path fill-rule="evenodd" clip-rule="evenodd" fill="#D6D7D6" d="M232.702,17.031c0,0.708-0.009,1.416,0.005,2.124
			c0.006,0.231-0.066,0.385-0.24,0.531c-0.598,0.503-1.191,1.012-1.771,1.537c-0.261,0.236-0.537,0.35-0.886,0.336
			c-0.325-0.013-0.654-0.001-0.979,0.026c-0.234,0.02-0.316-0.056-0.293-0.298c0.17-1.829,0.519-3.599,1.652-5.097
			c0.551-0.726,1.24-1.277,2.096-1.6c0.284-0.108,0.429-0.121,0.412,0.276c-0.029,0.72-0.008,1.443-0.008,2.165
			C232.693,17.031,232.697,17.031,232.702,17.031z"/>
		<path fill-rule="evenodd" clip-rule="evenodd" fill="#F5B521" d="M227.025,37.242c1.006-0.233,1.93-0.448,2.855-0.663
			c0.13-0.03,0.233,0.007,0.334,0.099c1.761,1.606,3.42,3.309,4.814,5.263c0.037,0.053,0.063,0.114,0.123,0.225
			c-0.959,0-1.865-0.001-2.771,0.002c-0.125,0.001-0.201-0.065-0.273-0.151C230.618,40.248,228.919,38.712,227.025,37.242z"/>
		<path fill-rule="evenodd" clip-rule="evenodd" fill="#FBFBFB" d="M225.971,36.788c-0.171,0.055-0.311,0.1-0.492,0.159
			c0.592,0.437,1.147,0.873,1.73,1.267c0.334,0.226,0.42,0.436,0.26,0.839c-0.363,0.911-0.671,1.844-0.984,2.774
			c-0.082,0.239-0.184,0.337-0.453,0.352c-0.469,0.024-0.82-0.101-1.141-0.47c-0.395-0.457-0.848-0.864-1.293-1.273
			c-0.178-0.162-0.217-0.301-0.127-0.531c0.295-0.76,0.583-1.522,0.928-2.262c0.055-0.118,0.157-0.225,0.12-0.376
			c-0.54,0.056-0.637-0.063-0.534-0.658c0.084-0.482,0.266-0.929,0.474-1.368c0.086-0.182,0.159-0.242,0.304-0.047
			C225.155,35.723,225.559,36.246,225.971,36.788z"/>
		<path fill-rule="evenodd" clip-rule="evenodd" fill="#FBFBFB" d="M261.742,42.166c-0.572,0-1.145,0.005-1.717-0.004
			c-0.124-0.002-0.33,0.095-0.318-0.18c0.009-0.225,0.168-0.162,0.297-0.169c0.561-0.028,0.811-0.261,0.898-0.825
			c0.004-0.027,0.005-0.057,0.008-0.084c0.143-1.31-0.043-1.539-1.326-1.64c-0.366-0.028-0.733-0.05-1.1-0.079
			c-0.113-0.01-0.268,0.023-0.25-0.18c0.014-0.146-0.037-0.339,0.168-0.376c0.867-0.159,1.592-0.705,2.438-0.925
			c1.503-0.391,2.524,0.226,2.846,1.767c0.167,0.805,0.177,1.626,0.169,2.447c-0.002,0.212-0.092,0.253-0.272,0.251
			C262.97,42.161,262.355,42.166,261.742,42.166z"/>
		<path fill-rule="evenodd" clip-rule="evenodd" fill="#F5B521" d="M289.809,42.587c0,1.001-0.008,2.002,0.005,3.003
			c0.003,0.284-0.052,0.355-0.341,0.262c-0.633-0.205-0.639-0.188-0.639-0.868c0-1.558-0.011-3.114,0.008-4.671
			c0.005-0.389-0.117-0.511-0.492-0.494c-0.612,0.027-1.228,0.026-1.84,0c-0.371-0.015-0.469,0.143-0.465,0.491
			c0.012,1.279-0.007,2.559,0.012,3.837c0.006,0.355-0.085,0.367-0.391,0.279c-0.467-0.135-0.62-0.377-0.604-0.882
			c0.041-1.277,0.012-2.558,0.014-3.836c0.002-0.648,0.227-0.874,0.863-0.875c1.008-0.001,2.018-0.001,3.025,0
			c0.651,0.001,0.842,0.2,0.844,0.875C289.809,40.668,289.809,41.627,289.809,42.587z"/>
		<path fill-rule="evenodd" clip-rule="evenodd" fill="#FBFBFB" d="M254.483,39.328c1.812,0.124,3.575,0.24,5.339,0.367
			c0.689,0.049,0.73,0.107,0.697,0.81c-0.006,0.139-0.007,0.278-0.016,0.416c-0.023,0.334-0.188,0.506-0.529,0.481
			c-1.98-0.142-3.961-0.277-5.941-0.422c-0.418-0.031-0.548-0.204-0.511-0.625c0.005-0.055,0.021-0.109,0.02-0.165
			C253.537,39.122,253.803,39.263,254.483,39.328z"/>
		<path fill-rule="evenodd" clip-rule="evenodd" fill="#F9B71F" d="M213.088,42.165c-0.653,0.001-1.307-0.017-1.959,0.008
			c-0.328,0.013-0.391-0.112-0.357-0.412c0.111-0.993,0.748-1.541,1.568-1.903c0.934-0.412,1.883-0.338,2.823,0.013
			c0.205,0.077,0.294,0.194,0.285,0.431c-0.019,0.512-0.018,1.026-0.001,1.539c0.009,0.253-0.063,0.338-0.318,0.332
			C214.449,42.154,213.768,42.165,213.088,42.165z"/>
		<path fill-rule="evenodd" clip-rule="evenodd" fill="#D6D7D6" d="M225.279,28.069c-0.642-0.081-1.231-0.2-1.83-0.105
			c-0.139,0.022-0.193-0.062-0.225-0.182c-0.713-2.646-1.427-5.292-2.139-7.938c-0.006-0.024,0.008-0.053,0.029-0.182
			C222.521,22.5,223.891,25.263,225.279,28.069z"/>
		<path fill-rule="evenodd" clip-rule="evenodd" fill="#D6D7D6" d="M229.28,36.039c-0.809,0.187-1.589,0.361-2.364,0.551
			c-0.17,0.042-0.271,0.012-0.378-0.133c-0.468-0.629-0.943-1.253-1.427-1.87c-0.134-0.17-0.119-0.296-0.016-0.479
			c0.254-0.451,0.627-0.747,1.066-0.981c0.105-0.056,0.174-0.055,0.246,0.032c0.853,1.015,1.902,1.819,2.83,2.754
			C229.254,35.929,229.256,35.962,229.28,36.039z"/>
		<path fill-rule="evenodd" clip-rule="evenodd" fill="#E8C77C" d="M288.836,48.69c0.336,0.068,0.67,0.148,0.982,0.301
			c-0.005,0.208-0.012,0.415-0.014,0.623c-0.008,0.585-0.221,0.812-0.782,0.813c-1.073,0.003-2.147-0.004-3.222,0.003
			c-0.371,0.002-0.576-0.19-0.682-0.53c-0.008-0.026-0.023-0.052-0.024-0.078c-0.022-0.909-0.091-1.818,0.032-2.726
			c0.209,0.364,0.645,0.333,0.934,0.557c-0.006,0.458-0.01,0.917-0.018,1.375c-0.006,0.299,0.125,0.418,0.424,0.409
			c0.53-0.017,1.063-0.008,1.594-0.004C288.986,49.44,288.8,49.435,288.836,48.69z"/>
		<path fill-rule="evenodd" clip-rule="evenodd" fill="#D6D7D6" d="M227.054,42.14c0.372-1.061,0.728-2.075,1.095-3.123
			c1.15,0.95,2.186,1.974,3.207,3.123C229.884,42.14,228.491,42.14,227.054,42.14z"/>
		<path fill-rule="evenodd" clip-rule="evenodd" fill="#9E9F9E" d="M285.127,47.097c-0.123,0.907-0.055,1.816-0.032,2.726
			c0.001,0.026,0.017,0.052,0.024,0.078c0.105,0.34,0.311,0.532,0.682,0.53c1.074-0.007,2.148,0,3.222-0.003
			c0.562-0.002,0.774-0.229,0.782-0.813c0.002-0.208,0.009-0.415,0.014-0.623c0.226,0.02,0.439,0.085,0.643,0.188
			c0.111,1.485-0.508,2.022-1.886,1.929c-0.854-0.059-1.718-0.045-2.573-0.002c-1.034,0.052-1.582-0.514-1.588-1.633
			c-0.006-1.015-0.002-2.028-0.001-3.042C284.828,46.455,284.955,46.801,285.127,47.097z"/>
		<path fill-rule="evenodd" clip-rule="evenodd" fill="#D6D7D6" d="M300.314,18.83c-0.744-2.141-1.468-4.224-2.2-6.333
			c0.335-0.026,0.62-0.042,0.902-0.072c0.165-0.018,0.245,0.048,0.3,0.205c0.582,1.686,1.17,3.37,1.757,5.054
			c0.042,0.123,0.058,0.238-0.044,0.348C300.799,18.283,300.574,18.539,300.314,18.83z"/>
		<path fill-rule="evenodd" clip-rule="evenodd" fill="#5A71B5" d="M284.662,38.68c-0.136,0.26-0.25,0.549-0.223,0.83
			c0.039,0.427-0.192,0.574-0.504,0.736c-0.97,0.504-1.947,0.998-2.883,1.563c-0.811,0.49-1.586,0.44-2.451,0.046
			c0.451-0.246,0.865-0.474,1.281-0.699c1.479-0.801,2.955-1.602,4.435-2.4c0.095-0.051,0.202-0.08,0.303-0.119
			C284.634,38.652,284.648,38.666,284.662,38.68z"/>
		<path fill-rule="evenodd" clip-rule="evenodd" fill="#F5B521" d="M223.411,38.266c-0.511,1.267-0.913,2.458-1.249,3.669
			c-0.087,0.313-0.299,0.216-0.486,0.228c-0.247,0.015-0.189-0.18-0.194-0.32c-0.032-0.9,0.065-1.804-0.061-2.702
			c-0.018-0.123,0-0.211,0.135-0.255C222.146,38.692,222.735,38.492,223.411,38.266z"/>
		<path fill-rule="evenodd" clip-rule="evenodd" fill="#9E9F9E" d="M298.514,62.295c-0.075-0.522-0.029-1.049-0.032-1.573
			c-0.009-1.48-0.005-2.961-0.007-4.441c0.218-0.032,0.436-0.063,0.653-0.095c-0.003,2.032-0.007,4.064-0.01,6.097
			C298.916,62.287,298.715,62.291,298.514,62.295z"/>
		<path fill-rule="evenodd" clip-rule="evenodd" fill="#9E9F9E" d="M298.475,55.754c0.002-0.444-0.002-0.889,0.006-1.332
			c0.006-0.375,0.008-0.723-0.264-1.046c-0.229-0.271-0.254-0.612,0.07-0.882c0.338-0.279,0.115-0.685,0.221-1.018
			c0.338,0.081,0.668,0.187,0.967,0.371c-0.246,0.292-0.486,0.591-0.743,0.874c-0.136,0.148-0.231,0.295-0.065,0.461
			c0.162,0.16,0.323,0.071,0.462-0.063c0.353-0.342,0.703-0.685,1.054-1.026c0.156,0.037,0.33,0.035,0.424,0.205
			c-0.32,0.442-0.762,0.76-1.135,1.147c-0.236,0.245-0.367,0.479-0.347,0.83c0.026,0.467,0.006,0.938,0.005,1.406
			C298.911,55.706,298.693,55.73,298.475,55.754z"/>
		<path fill-rule="evenodd" clip-rule="evenodd" fill="#9E9F9E" d="M288.836,48.69c-0.036,0.744,0.15,0.75-0.775,0.743
			c-0.531-0.004-1.063-0.013-1.594,0.004c-0.299,0.009-0.43-0.11-0.424-0.409c0.008-0.458,0.012-0.917,0.018-1.375
			C287,47.957,287.885,48.416,288.836,48.69z"/>
		<path fill-rule="evenodd" clip-rule="evenodd" fill="#D6D7D6" d="M302.711,15.216c0.025,0.125-0.018,0.17-0.088,0.198
			c-0.076,0.029-0.15,0.065-0.229,0.087c-0.413,0.117-0.79,0.357-1.232,0.372c-0.185-0.505-0.37-1.009-0.552-1.514
			c-0.063-0.172,0.062-0.215,0.182-0.257c0.385-0.136,0.77-0.271,1.154-0.409c0.091-0.033,0.193-0.09,0.241,0.041
			C302.371,14.239,302.547,14.749,302.711,15.216z"/>
		<path fill-rule="evenodd" clip-rule="evenodd" fill="#D6D7D6" d="M229.012,25.318c-0.557,0-1.085,0.002-1.613,0
			c-0.447-0.002-0.714-0.199-0.733-0.533c-0.021-0.34,0.325-0.77,0.671-0.795c0.311-0.023,0.625-0.004,0.938-0.01
			c0.107-0.001,0.188,0.036,0.232,0.132C228.682,24.496,228.898,24.864,229.012,25.318z"/>
		<path fill-rule="evenodd" clip-rule="evenodd" fill="#FBFBFB" d="M281.547,42.095c0.885-0.479,1.771-0.954,2.651-1.442
			c0.22-0.121,0.257-0.037,0.252,0.167c-0.005,0.264,0,0.527-0.001,0.791c-0.002,0.453-0.094,0.551-0.555,0.554
			c-0.775,0.006-1.551,0.002-2.327,0.002C281.561,42.143,281.554,42.118,281.547,42.095z"/>
		<path fill-rule="evenodd" clip-rule="evenodd" fill="#F5B521" d="M256.907,42.166c-0.626,0-1.253-0.011-1.878,0.005
			c-0.293,0.007-0.258-0.176-0.238-0.355c0.018-0.156-0.082-0.396,0.229-0.372c1.248,0.096,2.494,0.187,3.741,0.285
			c0.099,0.008,0.247-0.031,0.281,0.106c0.05,0.202,0.007,0.342-0.257,0.336C258.159,42.156,257.533,42.166,256.907,42.166z"/>
		<path fill-rule="evenodd" clip-rule="evenodd" fill="#89BC4A" d="M305.664,51.688c-1.207-0.572-2.414-1.146-3.681-1.613
			c0.913-0.58,2.842-0.077,3.708,1.585L305.664,51.688z"/>
		<path fill-rule="evenodd" clip-rule="evenodd" fill="#89BC4A" d="M272.123,40.14c0.791-0.324,1.51-0.451,2.252-0.379
			c0.502,0.049,0.904,0.288,1.144,0.763c0.052,0.104,0.089,0.227,0.04,0.32c-0.071,0.137-0.191,0.031-0.288,0.006
			C274.26,40.576,273.245,40.32,272.123,40.14z"/>
		<path fill-rule="evenodd" clip-rule="evenodd" fill="#F5B521" d="M281.543,42.831c0.883,0,1.764,0.003,2.646-0.003
			c0.188-0.002,0.258,0.057,0.271,0.259c0.063,0.906,0.072,0.901-0.762,0.594c-0.721-0.267-1.447-0.523-2.17-0.784
			C281.533,42.875,281.539,42.853,281.543,42.831z"/>
		<path fill-rule="evenodd" clip-rule="evenodd" fill="#F5B521" d="M223.151,40.904c0.442,0.429,0.833,0.808,1.301,1.261
			c-0.55,0-1.003-0.004-1.455,0.002c-0.216,0.004-0.214-0.118-0.167-0.269C222.929,41.583,223.033,41.27,223.151,40.904z"/>
		<path fill-rule="evenodd" clip-rule="evenodd" fill="#E8C77C" d="M300.182,52.094c-0.351,0.342-0.701,0.685-1.054,1.026
			c-0.139,0.134-0.3,0.223-0.462,0.063c-0.166-0.166-0.07-0.313,0.065-0.461c0.257-0.283,0.497-0.582,0.743-0.874
			C299.728,51.881,299.959,51.975,300.182,52.094z"/>
		<path fill-rule="evenodd" clip-rule="evenodd" fill="#D6D7D6" d="M221.046,19.541c0.009,0.023,0.02,0.044,0.024,0.067
			c0.001,0.007-0.016,0.017-0.024,0.026c-0.008-0.021-0.019-0.042-0.022-0.064C221.021,19.563,221.037,19.552,221.046,19.541z"/>
		<path fill-rule="evenodd" clip-rule="evenodd" fill="#5A71B5" d="M284.62,38.637c0.026-0.029,0.054-0.06,0.087-0.011
			c0.003,0.005-0.029,0.035-0.045,0.053C284.648,38.666,284.634,38.652,284.62,38.637z"/>
		<path fill-rule="evenodd" clip-rule="evenodd" fill="#FFFFFF" d="M302.086,49.442c-0.019,0.015-0.047,0.046-0.055,0.041
			c-0.048-0.029-0.023-0.063,0.004-0.093C302.053,49.407,302.07,49.425,302.086,49.442z"/>
		<path fill-rule="evenodd" clip-rule="evenodd" fill="#FBFBFB" d="M240.526,28.459c0.028-0.013,0.078-0.042,0.081-0.037
			c0.029,0.041,0.004,0.066-0.035,0.083C240.557,28.49,240.542,28.475,240.526,28.459z"/>
		<path fill-rule="evenodd" clip-rule="evenodd" fill="#FFFFFF" d="M241.412,27.78c-0.041,0.029-0.084,0.052-0.122,0.003
			c-0.004-0.004,0.038-0.047,0.059-0.072C241.369,27.734,241.391,27.757,241.412,27.78z"/>
		<path fill-rule="evenodd" clip-rule="evenodd" fill="#89BC4A" d="M305.691,51.66c0.031,0.019,0.064,0.038,0.018,0.073
			c-0.003,0.002-0.029-0.029-0.045-0.045L305.691,51.66z"/>
		<path fill-rule="evenodd" clip-rule="evenodd" fill="#646667" d="M298.475,55.754c0.219-0.023,0.437-0.048,0.654-0.071
			c0.167,0.168,0.195,0.336-0.001,0.503c-0.218,0.031-0.436,0.063-0.653,0.095c-0.654,0.097-1.309,0.194-1.964,0.29
			c-0.187,0.027-0.411,0.094-0.473-0.168c-0.067-0.285,0.166-0.293,0.354-0.322C297.087,55.972,297.781,55.863,298.475,55.754z"/>
		<path fill-rule="evenodd" clip-rule="evenodd" fill="#646667" d="M273.682,49.605c-0.182,0.017-0.35-0.011-0.365-0.229
			c-0.016-0.221,0.163-0.257,0.332-0.282c1.656-0.25,3.311-0.5,4.966-0.75c0.619-0.094,1.239-0.178,1.856-0.283
			c0.223-0.038,0.437-0.063,0.479,0.217c0.04,0.264-0.205,0.263-0.366,0.288c-1.533,0.236-3.067,0.462-4.602,0.692
			C275.215,49.373,274.448,49.489,273.682,49.605z"/>
		<path fill-rule="evenodd" clip-rule="evenodd" fill="#646667" d="M276.239,50.97c-0.126,0.009-0.246-0.068-0.255-0.253
			c-0.01-0.234,0.185-0.25,0.34-0.274c0.766-0.118,1.531-0.229,2.297-0.342c0.846-0.126,1.691-0.251,2.537-0.377
			c0.066-0.01,0.133-0.024,0.201-0.035c0.18-0.028,0.348,0.013,0.389,0.207c0.049,0.227-0.131,0.27-0.301,0.295
			c-0.604,0.092-1.208,0.187-1.813,0.276c-1.061,0.158-2.121,0.313-3.182,0.469C276.398,50.943,276.346,50.953,276.239,50.97z"/>
		<path fill-rule="evenodd" clip-rule="evenodd" fill="#646667" d="M236.594,26.774c0,0.848,0.003,1.695-0.002,2.542
			c-0.002,0.482-0.068,0.552-0.549,0.556c-1.362,0.011-2.725,0.007-4.088,0.025c-0.38,0.005-0.543-0.136-0.543-0.533
			c0.002-1.737-0.005-3.474-0.022-5.211c-0.003-0.364,0.145-0.494,0.487-0.493c1.404,0.004,2.808,0.002,4.211-0.015
			c0.365-0.004,0.475,0.156,0.47,0.503c-0.013,0.875-0.005,1.751-0.005,2.626C236.566,26.774,236.58,26.774,236.594,26.774z
			 M235.931,26.791c-0.009,0-0.019,0-0.026,0c0-0.708-0.008-1.417,0.004-2.126c0.003-0.232-0.031-0.349-0.307-0.344
			c-1.09,0.016-2.18,0.011-3.27,0.003c-0.201-0.001-0.29,0.041-0.287,0.272c0.014,1.445,0.018,2.89,0.014,4.335
			c-0.001,0.243,0.086,0.305,0.311,0.303c1.076-0.009,2.152-0.014,3.229,0.002c0.282,0.004,0.344-0.099,0.338-0.361
			C235.921,28.181,235.931,27.486,235.931,26.791z"/>
		<path fill-rule="evenodd" clip-rule="evenodd" fill="#646667" d="M295.519,41.348c-0.49,0.019-0.856-0.175-1.075-0.587
			c-0.659-1.245-1.319-2.49-1.944-3.753c-0.342-0.69-0.129-1.326,0.54-1.692c2.062-1.129,4.129-2.249,6.201-3.356
			c0.625-0.334,1.33-0.102,1.68,0.55c0.648,1.204,1.281,2.417,1.9,3.637c0.337,0.667,0.124,1.325-0.574,1.729
			c-0.91,0.527-1.842,1.016-2.768,1.518c-1.082,0.586-2.166,1.166-3.248,1.75C295.999,41.268,295.764,41.371,295.519,41.348z
			 M294.268,35.474c-0.314-0.085-0.708,0.047-1.059,0.315c-0.279,0.213-0.418,0.477-0.332,0.864
			c0.088,0.395,0.331,0.426,0.657,0.449c2.497,0.174,4.992,0.358,7.487,0.557c0.418,0.033,0.779-0.052,1.109-0.301
			c0.276-0.209,0.395-0.472,0.299-0.831c-0.094-0.356-0.281-0.549-0.664-0.525c-0.229,0.014-0.463-0.01-0.693-0.026
			C298.848,35.812,296.623,35.647,294.268,35.474z M300.457,38.264c-2.394-0.169-4.678-0.331-7.027-0.497
			c0.463,0.892,0.879,1.7,1.303,2.504c0.33,0.629,0.677,0.733,1.3,0.398c1.249-0.674,2.496-1.349,3.743-2.024
			C299.975,38.539,300.169,38.426,300.457,38.264z M295.055,34.773c0.003,0.033,0.007,0.067,0.01,0.1
			c2.24,0.158,4.479,0.316,6.788,0.479c-0.487-0.936-0.921-1.797-1.384-2.643c-0.225-0.41-0.605-0.521-1.018-0.302
			C297.981,33.186,296.52,33.983,295.055,34.773z"/>
		<path fill-rule="evenodd" clip-rule="evenodd" fill="#646667" d="M308.7,31.761c-0.006,1.476-1.162,2.652-2.597,2.64
			c-1.424-0.011-2.564-1.205-2.559-2.679c0.005-1.424,1.188-2.625,2.582-2.62C307.557,29.107,308.706,30.295,308.7,31.761z
			 M308.217,31.776c0.02-1.181-0.873-2.129-2.027-2.155c-1.172-0.026-2.133,0.899-2.156,2.076c-0.023,1.165,0.867,2.175,1.945,2.205
			C307.234,33.936,308.197,33.022,308.217,31.776z"/>
		<path fill-rule="evenodd" clip-rule="evenodd" fill="#646667" d="M217.072,44.628c0-1.444,0.011-2.89-0.007-4.335
			c-0.005-0.368,0.113-0.486,0.47-0.474c0.639,0.024,1.28,0.017,1.92,0.002c0.303-0.007,0.407,0.111,0.406,0.415
			c-0.006,2.932-0.006,5.863,0,8.795c0.002,0.311-0.115,0.415-0.411,0.409c-0.653-0.015-1.308-0.018-1.962,0.001
			c-0.323,0.009-0.424-0.112-0.422-0.437C217.08,47.546,217.072,46.087,217.072,44.628z"/>
		<path fill-rule="evenodd" clip-rule="evenodd" fill="#FBFBFB" d="M235.931,26.791c0,0.695-0.01,1.39,0.005,2.084
			c0.006,0.263-0.056,0.366-0.338,0.361c-1.076-0.016-2.152-0.011-3.229-0.002c-0.225,0.002-0.312-0.06-0.311-0.303
			c0.004-1.445,0-2.89-0.014-4.335c-0.003-0.232,0.086-0.274,0.287-0.272c1.09,0.008,2.18,0.013,3.27-0.003
			c0.275-0.004,0.31,0.112,0.307,0.344c-0.012,0.708-0.004,1.417-0.004,2.126C235.912,26.791,235.922,26.791,235.931,26.791z"/>
		<path fill-rule="evenodd" clip-rule="evenodd" fill="#A7BED3" d="M294.268,35.474c2.355,0.174,4.58,0.338,6.805,0.501
			c0.23,0.017,0.464,0.04,0.693,0.026c0.383-0.023,0.57,0.169,0.664,0.525c0.096,0.358-0.022,0.622-0.299,0.831
			c-0.33,0.25-0.691,0.334-1.109,0.301c-2.495-0.199-4.99-0.383-7.487-0.557c-0.326-0.023-0.569-0.054-0.657-0.449
			c-0.086-0.387,0.053-0.651,0.332-0.864C293.56,35.521,293.953,35.389,294.268,35.474z M297.448,36.077
			c-0.244,0-0.489,0.007-0.732-0.002c-0.253-0.009-0.453,0.005-0.456,0.357s0.225,0.368,0.457,0.381
			c0.742,0.042,1.489-0.032,2.232,0.076c0.224,0.032,0.346-0.1,0.344-0.35c-0.002-0.223-0.041-0.381-0.305-0.382
			C298.475,36.158,297.965,36.042,297.448,36.077z"/>
		<path fill-rule="evenodd" clip-rule="evenodd" fill="#FBFBFB" d="M300.457,38.264c-0.288,0.162-0.482,0.274-0.682,0.382
			c-1.247,0.675-2.494,1.35-3.743,2.024c-0.623,0.335-0.97,0.23-1.3-0.398c-0.424-0.805-0.84-1.613-1.303-2.504
			C295.779,37.933,298.063,38.095,300.457,38.264z"/>
		<path fill-rule="evenodd" clip-rule="evenodd" fill="#FBFBFB" d="M295.055,34.773c1.465-0.79,2.927-1.587,4.396-2.366
			c0.412-0.218,0.793-0.107,1.018,0.302c0.463,0.846,0.896,1.708,1.384,2.643c-2.309-0.163-4.548-0.321-6.788-0.479
			C295.062,34.84,295.058,34.806,295.055,34.773z"/>
		<path fill-rule="evenodd" clip-rule="evenodd" fill="#FBFBFB" d="M308.217,31.776c-0.02,1.246-0.982,2.16-2.238,2.125
			c-1.078-0.03-1.969-1.04-1.945-2.205c0.023-1.177,0.984-2.102,2.156-2.076C307.344,29.647,308.236,30.596,308.217,31.776z"/>
		<path fill-rule="evenodd" clip-rule="evenodd" fill="#5A71B5" d="M297.448,36.077c0.517-0.035,1.026,0.081,1.54,0.082
			c0.264,0.001,0.303,0.159,0.305,0.382c0.002,0.25-0.12,0.382-0.344,0.35c-0.743-0.108-1.49-0.034-2.232-0.076
			c-0.232-0.013-0.46-0.029-0.457-0.381s0.203-0.366,0.456-0.357C296.959,36.084,297.204,36.077,297.448,36.077z"/>
	</g>
</g>
</svg>
